<mxfile host="65bd71144e">
    <diagram id="3CGOplF_25yKbEWaD3JT" name="Use Case">
        <mxGraphModel dx="2617" dy="1913" grid="0" gridSize="10" guides="1" tooltips="1" connect="1" arrows="1" fold="1" page="1" pageScale="1" pageWidth="850" pageHeight="1100" math="0" shadow="0">
            <root>
                <mxCell id="0"/>
                <mxCell id="1" parent="0"/>
                <mxCell id="218" value="Biểu đồ ca" style="shape=umlFrame;whiteSpace=wrap;html=1;width=75;height=22;boundedLbl=1;verticalAlign=middle;align=left;spacingLeft=5;" parent="1" vertex="1">
                    <mxGeometry x="-142" y="-114" width="1164" height="762" as="geometry"/>
                </mxCell>
                <mxCell id="263" value="" style="rounded=0;whiteSpace=wrap;html=1;" parent="1" vertex="1">
                    <mxGeometry x="27" y="-70" width="823" height="676" as="geometry"/>
                </mxCell>
                <mxCell id="90" value="Quản trị viên" style="shape=umlActor;verticalLabelPosition=bottom;verticalAlign=top;html=1;" parent="1" vertex="1">
                    <mxGeometry x="-65" y="3" width="30" height="60" as="geometry"/>
                </mxCell>
                <mxCell id="270" value="&lt;font style=&quot;font-size: 24px&quot;&gt;Medicine16&lt;/font&gt;" style="text;html=1;strokeColor=none;fillColor=none;align=center;verticalAlign=middle;whiteSpace=wrap;rounded=0;" parent="1" vertex="1">
                    <mxGeometry x="395" y="-58" width="40" height="20" as="geometry"/>
                </mxCell>
                <mxCell id="e231MXxMTPdDSmjY2rK_-270" value="Quản lý bệnh nhân" style="ellipse;whiteSpace=wrap;html=1;" parent="1" vertex="1">
                    <mxGeometry x="82" y="240" width="140" height="70" as="geometry"/>
                </mxCell>
                <mxCell id="e231MXxMTPdDSmjY2rK_-271" value="" style="endArrow=none;startArrow=none;endFill=0;startFill=0;endSize=8;html=1;verticalAlign=bottom;labelBackgroundColor=none;strokeWidth=3;entryX=0;entryY=0.5;entryDx=0;entryDy=0;exitX=1;exitY=0.3333333333333333;exitDx=0;exitDy=0;exitPerimeter=0;" parent="1" source="90" target="e231MXxMTPdDSmjY2rK_-270" edge="1">
                    <mxGeometry width="160" relative="1" as="geometry">
                        <mxPoint x="-85" y="169" as="sourcePoint"/>
                        <mxPoint x="73" y="179" as="targetPoint"/>
                    </mxGeometry>
                </mxCell>
                <mxCell id="e231MXxMTPdDSmjY2rK_-272" value="Quản lý nhân viên" style="ellipse;whiteSpace=wrap;html=1;" parent="1" vertex="1">
                    <mxGeometry x="82" y="-13" width="140" height="70" as="geometry"/>
                </mxCell>
                <mxCell id="e231MXxMTPdDSmjY2rK_-301" value="Bác sĩ" style="shape=umlActor;verticalLabelPosition=bottom;verticalAlign=top;html=1;" parent="1" vertex="1">
                    <mxGeometry x="919" y="-3" width="30" height="60" as="geometry"/>
                </mxCell>
                <mxCell id="e231MXxMTPdDSmjY2rK_-307" value="" style="endArrow=none;startArrow=none;endFill=0;startFill=0;endSize=8;html=1;verticalAlign=bottom;labelBackgroundColor=none;strokeWidth=3;exitX=0;exitY=0.333;exitDx=0;exitDy=0;exitPerimeter=0;entryX=1;entryY=0.5;entryDx=0;entryDy=0;" parent="1" source="e231MXxMTPdDSmjY2rK_-301" target="295" edge="1">
                    <mxGeometry width="160" relative="1" as="geometry">
                        <mxPoint x="-78" y="199" as="sourcePoint"/>
                        <mxPoint x="776.99999999999" y="365" as="targetPoint"/>
                    </mxGeometry>
                </mxCell>
                <mxCell id="e231MXxMTPdDSmjY2rK_-312" value="" style="endArrow=none;startArrow=none;endFill=0;startFill=0;endSize=8;html=1;verticalAlign=bottom;labelBackgroundColor=none;strokeWidth=3;entryX=0;entryY=0.5;entryDx=0;entryDy=0;exitX=1;exitY=0.3333333333333333;exitDx=0;exitDy=0;exitPerimeter=0;" parent="1" source="90" target="e231MXxMTPdDSmjY2rK_-272" edge="1">
                    <mxGeometry width="160" relative="1" as="geometry">
                        <mxPoint x="-78" y="520.0000000000002" as="sourcePoint"/>
                        <mxPoint x="76" y="631" as="targetPoint"/>
                    </mxGeometry>
                </mxCell>
                <mxCell id="e231MXxMTPdDSmjY2rK_-318" value="Thủ kho" style="shape=umlActor;verticalLabelPosition=bottom;verticalAlign=top;html=1;" parent="1" vertex="1">
                    <mxGeometry x="919" y="253" width="30" height="60" as="geometry"/>
                </mxCell>
                <mxCell id="e231MXxMTPdDSmjY2rK_-326" value="" style="endArrow=none;startArrow=none;endFill=0;startFill=0;endSize=8;html=1;verticalAlign=bottom;labelBackgroundColor=none;strokeWidth=3;entryX=1;entryY=0.5;entryDx=0;entryDy=0;exitX=0;exitY=0.3333333333333333;exitDx=0;exitDy=0;exitPerimeter=0;" parent="1" source="e231MXxMTPdDSmjY2rK_-318" target="e231MXxMTPdDSmjY2rK_-327" edge="1">
                    <mxGeometry width="160" relative="1" as="geometry">
                        <mxPoint x="749" y="731" as="sourcePoint"/>
                        <mxPoint x="567" y="628" as="targetPoint"/>
                    </mxGeometry>
                </mxCell>
                <mxCell id="e231MXxMTPdDSmjY2rK_-327" value="Quản lý kho" style="ellipse;whiteSpace=wrap;html=1;" parent="1" vertex="1">
                    <mxGeometry x="644" y="240" width="140" height="70" as="geometry"/>
                </mxCell>
                <mxCell id="282" value="Mã BN" style="ellipse;whiteSpace=wrap;html=1;" parent="1" vertex="1">
                    <mxGeometry x="272" y="240" width="140" height="70" as="geometry"/>
                </mxCell>
                <mxCell id="283" value="Mã TK" style="ellipse;whiteSpace=wrap;html=1;" parent="1" vertex="1">
                    <mxGeometry x="272" y="330" width="140" height="70" as="geometry"/>
                </mxCell>
                <mxCell id="284" value="Mã NV" style="ellipse;whiteSpace=wrap;html=1;" parent="1" vertex="1">
                    <mxGeometry x="272" y="72" width="140" height="70" as="geometry"/>
                </mxCell>
                <mxCell id="285" value="Mã TK" style="ellipse;whiteSpace=wrap;html=1;" parent="1" vertex="1">
                    <mxGeometry x="272" y="-17" width="140" height="70" as="geometry"/>
                </mxCell>
                <mxCell id="286" value="Vị trí" style="ellipse;whiteSpace=wrap;html=1;" parent="1" vertex="1">
                    <mxGeometry x="272" y="155" width="140" height="70" as="geometry"/>
                </mxCell>
                <mxCell id="287" value="&amp;lt;&amp;lt;include&amp;gt;&amp;gt;" style="html=1;verticalAlign=bottom;labelBackgroundColor=none;endArrow=open;endFill=0;dashed=1;entryX=0;entryY=0.5;entryDx=0;entryDy=0;exitX=1;exitY=1;exitDx=0;exitDy=0;" parent="1" source="e231MXxMTPdDSmjY2rK_-272" target="284" edge="1">
                    <mxGeometry width="160" relative="1" as="geometry">
                        <mxPoint x="207" y="535" as="sourcePoint"/>
                        <mxPoint x="367" y="535" as="targetPoint"/>
                    </mxGeometry>
                </mxCell>
                <mxCell id="288" value="&amp;lt;&amp;lt;include&amp;gt;&amp;gt;" style="html=1;verticalAlign=bottom;labelBackgroundColor=none;endArrow=open;endFill=0;dashed=1;entryX=0;entryY=0.5;entryDx=0;entryDy=0;" parent="1" source="e231MXxMTPdDSmjY2rK_-272" target="285" edge="1">
                    <mxGeometry width="160" relative="1" as="geometry">
                        <mxPoint x="157" y="601" as="sourcePoint"/>
                        <mxPoint x="317" y="601" as="targetPoint"/>
                    </mxGeometry>
                </mxCell>
                <mxCell id="289" value="&amp;lt;&amp;lt;include&amp;gt;&amp;gt;" style="html=1;verticalAlign=bottom;labelBackgroundColor=none;endArrow=open;endFill=0;dashed=1;exitX=0.5;exitY=1;exitDx=0;exitDy=0;entryX=-0.007;entryY=0.4;entryDx=0;entryDy=0;entryPerimeter=0;" parent="1" source="e231MXxMTPdDSmjY2rK_-272" target="286" edge="1">
                    <mxGeometry width="160" relative="1" as="geometry">
                        <mxPoint x="176" y="664" as="sourcePoint"/>
                        <mxPoint x="336" y="664" as="targetPoint"/>
                    </mxGeometry>
                </mxCell>
                <mxCell id="290" value="&amp;lt;&amp;lt;include&amp;gt;&amp;gt;" style="html=1;verticalAlign=bottom;labelBackgroundColor=none;endArrow=open;endFill=0;dashed=1;exitX=1;exitY=0.5;exitDx=0;exitDy=0;entryX=0;entryY=0.5;entryDx=0;entryDy=0;" parent="1" source="e231MXxMTPdDSmjY2rK_-270" target="282" edge="1">
                    <mxGeometry width="160" relative="1" as="geometry">
                        <mxPoint x="111" y="883" as="sourcePoint"/>
                        <mxPoint x="271" y="883" as="targetPoint"/>
                    </mxGeometry>
                </mxCell>
                <mxCell id="291" value="&amp;lt;&amp;lt;include&amp;gt;&amp;gt;" style="html=1;verticalAlign=bottom;labelBackgroundColor=none;endArrow=open;endFill=0;dashed=1;exitX=1;exitY=1;exitDx=0;exitDy=0;entryX=0;entryY=0.5;entryDx=0;entryDy=0;" parent="1" source="e231MXxMTPdDSmjY2rK_-270" target="283" edge="1">
                    <mxGeometry width="160" relative="1" as="geometry">
                        <mxPoint x="208" y="867" as="sourcePoint"/>
                        <mxPoint x="368" y="867" as="targetPoint"/>
                    </mxGeometry>
                </mxCell>
                <mxCell id="295" value="Quản lý lịch khám" style="ellipse;whiteSpace=wrap;html=1;" parent="1" vertex="1">
                    <mxGeometry x="644" y="-17" width="140" height="70" as="geometry"/>
                </mxCell>
                <mxCell id="296" value="Mã K" style="ellipse;whiteSpace=wrap;html=1;" parent="1" vertex="1">
                    <mxGeometry x="435" y="-17" width="140" height="70" as="geometry"/>
                </mxCell>
                <mxCell id="297" value="Mã BN" style="ellipse;whiteSpace=wrap;html=1;" parent="1" vertex="1">
                    <mxGeometry x="435" y="72" width="140" height="70" as="geometry"/>
                </mxCell>
                <mxCell id="298" value="Ngày khám" style="ellipse;whiteSpace=wrap;html=1;" parent="1" vertex="1">
                    <mxGeometry x="435" y="155" width="140" height="70" as="geometry"/>
                </mxCell>
                <mxCell id="301" value="&amp;lt;&amp;lt;include&amp;gt;&amp;gt;" style="html=1;verticalAlign=bottom;labelBackgroundColor=none;endArrow=open;endFill=0;dashed=1;exitX=0;exitY=0.5;exitDx=0;exitDy=0;entryX=1;entryY=0.5;entryDx=0;entryDy=0;" parent="1" source="295" target="296" edge="1">
                    <mxGeometry width="160" relative="1" as="geometry">
                        <mxPoint x="685" y="507" as="sourcePoint"/>
                        <mxPoint x="616" y="426" as="targetPoint"/>
                    </mxGeometry>
                </mxCell>
                <mxCell id="302" value="&amp;lt;&amp;lt;include&amp;gt;&amp;gt;" style="html=1;verticalAlign=bottom;labelBackgroundColor=none;endArrow=open;endFill=0;dashed=1;exitX=0;exitY=1;exitDx=0;exitDy=0;entryX=1;entryY=0.5;entryDx=0;entryDy=0;" parent="1" source="295" target="297" edge="1">
                    <mxGeometry width="160" relative="1" as="geometry">
                        <mxPoint x="656" y="498" as="sourcePoint"/>
                        <mxPoint x="816" y="498" as="targetPoint"/>
                    </mxGeometry>
                </mxCell>
                <mxCell id="303" value="&amp;lt;&amp;lt;include&amp;gt;&amp;gt;" style="html=1;verticalAlign=bottom;labelBackgroundColor=none;endArrow=open;endFill=0;dashed=1;exitX=0.5;exitY=1;exitDx=0;exitDy=0;entryX=1;entryY=0.5;entryDx=0;entryDy=0;" parent="1" source="295" target="298" edge="1">
                    <mxGeometry width="160" relative="1" as="geometry">
                        <mxPoint x="575" y="289" as="sourcePoint"/>
                        <mxPoint x="735" y="289" as="targetPoint"/>
                    </mxGeometry>
                </mxCell>
                <mxCell id="304" value="Mã T" style="ellipse;whiteSpace=wrap;html=1;" parent="1" vertex="1">
                    <mxGeometry x="435" y="243" width="140" height="70" as="geometry"/>
                </mxCell>
                <mxCell id="305" value="Số lượng nhập" style="ellipse;whiteSpace=wrap;html=1;" parent="1" vertex="1">
                    <mxGeometry x="435" y="330" width="140" height="70" as="geometry"/>
                </mxCell>
                <mxCell id="306" value="Số lượng xuất" style="ellipse;whiteSpace=wrap;html=1;" parent="1" vertex="1">
                    <mxGeometry x="435" y="417" width="140" height="70" as="geometry"/>
                </mxCell>
                <mxCell id="307" value="Số lượng tồn" style="ellipse;whiteSpace=wrap;html=1;" parent="1" vertex="1">
                    <mxGeometry x="435" y="500" width="140" height="70" as="geometry"/>
                </mxCell>
                <mxCell id="308" value="&amp;lt;&amp;lt;extend&amp;gt;&amp;gt;" style="html=1;verticalAlign=bottom;labelBackgroundColor=none;endArrow=open;endFill=0;dashed=1;exitX=1;exitY=0.5;exitDx=0;exitDy=0;entryX=0.333;entryY=0.999;entryDx=0;entryDy=0;entryPerimeter=0;" parent="1" source="307" target="e231MXxMTPdDSmjY2rK_-327" edge="1">
                    <mxGeometry width="160" relative="1" as="geometry">
                        <mxPoint x="630" y="346" as="sourcePoint"/>
                        <mxPoint x="790" y="346" as="targetPoint"/>
                    </mxGeometry>
                </mxCell>
                <mxCell id="309" value="&amp;lt;&amp;lt;extend&amp;gt;&amp;gt;" style="html=1;verticalAlign=bottom;labelBackgroundColor=none;endArrow=open;endFill=0;dashed=1;exitX=1;exitY=0.5;exitDx=0;exitDy=0;entryX=0;entryY=1;entryDx=0;entryDy=0;" parent="1" source="306" target="e231MXxMTPdDSmjY2rK_-327" edge="1">
                    <mxGeometry width="160" relative="1" as="geometry">
                        <mxPoint x="739" y="416" as="sourcePoint"/>
                        <mxPoint x="899" y="416" as="targetPoint"/>
                    </mxGeometry>
                </mxCell>
                <mxCell id="310" value="&amp;lt;&amp;lt;extend&amp;gt;&amp;gt;" style="html=1;verticalAlign=bottom;labelBackgroundColor=none;endArrow=open;endFill=0;dashed=1;exitX=1;exitY=0.5;exitDx=0;exitDy=0;entryX=0;entryY=0.5;entryDx=0;entryDy=0;" parent="1" source="305" target="e231MXxMTPdDSmjY2rK_-327" edge="1">
                    <mxGeometry width="160" relative="1" as="geometry">
                        <mxPoint x="723" y="446" as="sourcePoint"/>
                        <mxPoint x="649" y="288" as="targetPoint"/>
                    </mxGeometry>
                </mxCell>
                <mxCell id="311" value="&amp;lt;&amp;lt;extend&amp;gt;&amp;gt;" style="html=1;verticalAlign=bottom;labelBackgroundColor=none;endArrow=open;endFill=0;dashed=1;exitX=1;exitY=0.5;exitDx=0;exitDy=0;entryX=0;entryY=0;entryDx=0;entryDy=0;" parent="1" source="304" target="e231MXxMTPdDSmjY2rK_-327" edge="1">
                    <mxGeometry width="160" relative="1" as="geometry">
                        <mxPoint x="753" y="444" as="sourcePoint"/>
                        <mxPoint x="913" y="444" as="targetPoint"/>
                    </mxGeometry>
                </mxCell>
            </root>
        </mxGraphModel>
    </diagram>
    <diagram id="XH2-KGHgXs1VckAgN7d-" name="Class">
        <mxGraphModel dx="819" dy="488" grid="0" gridSize="10" guides="1" tooltips="1" connect="1" arrows="1" fold="1" page="1" pageScale="1" pageWidth="850" pageHeight="1100" math="0" shadow="0">
            <root>
                <mxCell id="rqCDqb16ot3SvTPK8jaa-0"/>
                <mxCell id="rqCDqb16ot3SvTPK8jaa-1" parent="rqCDqb16ot3SvTPK8jaa-0"/>
                <mxCell id="rqCDqb16ot3SvTPK8jaa-2" value="«interface»&#10;QuanTriVien" style="swimlane;fontStyle=1;align=center;verticalAlign=top;childLayout=stackLayout;horizontal=1;startSize=38;horizontalStack=0;resizeParent=1;resizeParentMax=0;resizeLast=0;collapsible=1;marginBottom=0;" parent="rqCDqb16ot3SvTPK8jaa-1" vertex="1">
                    <mxGeometry x="219" y="207" width="382" height="213" as="geometry"/>
                </mxCell>
                <mxCell id="rqCDqb16ot3SvTPK8jaa-3" value="- maQT: String&#10;- ten: String&#10;- ho: String&#10;- diaChi: String&#10;- soDienThoai: Int" style="text;strokeColor=none;fillColor=none;align=left;verticalAlign=top;spacingLeft=4;spacingRight=4;overflow=hidden;rotatable=0;points=[[0,0.5],[1,0.5]];portConstraint=eastwest;" parent="rqCDqb16ot3SvTPK8jaa-2" vertex="1">
                    <mxGeometry y="38" width="382" height="78" as="geometry"/>
                </mxCell>
                <mxCell id="rqCDqb16ot3SvTPK8jaa-4" value="" style="line;strokeWidth=1;fillColor=none;align=left;verticalAlign=middle;spacingTop=-1;spacingLeft=3;spacingRight=3;rotatable=0;labelPosition=right;points=[];portConstraint=eastwest;" parent="rqCDqb16ot3SvTPK8jaa-2" vertex="1">
                    <mxGeometry y="116" width="382" height="8" as="geometry"/>
                </mxCell>
                <mxCell id="rqCDqb16ot3SvTPK8jaa-5" value="+ xemHoSo(): void&#10;+ quanLyTaiKhoan(String matKhau, String soDienThoai): NguoiDung&#10;+ khoaTaiKhoan(String matKhau, String soDienThoai): void&#10;+ doiMatKhau(String matKhau, String soDienThoai): void&#10;+ thongKe(): string" style="text;strokeColor=none;fillColor=none;align=left;verticalAlign=top;spacingLeft=4;spacingRight=4;overflow=hidden;rotatable=0;points=[[0,0.5],[1,0.5]];portConstraint=eastwest;" parent="rqCDqb16ot3SvTPK8jaa-2" vertex="1">
                    <mxGeometry y="124" width="382" height="89" as="geometry"/>
                </mxCell>
                <mxCell id="rqCDqb16ot3SvTPK8jaa-6" value="«interface»&#10;ThuKho" style="swimlane;fontStyle=1;align=center;verticalAlign=top;childLayout=stackLayout;horizontal=1;startSize=38;horizontalStack=0;resizeParent=1;resizeParentMax=0;resizeLast=0;collapsible=1;marginBottom=0;" parent="rqCDqb16ot3SvTPK8jaa-1" vertex="1">
                    <mxGeometry x="219" y="434" width="285" height="185" as="geometry"/>
                </mxCell>
                <mxCell id="rqCDqb16ot3SvTPK8jaa-7" value="- maTK: String&#10;- ten: String&#10;- ho: String&#10;- diaChi: String&#10;- soDienThoai: Int" style="text;strokeColor=none;fillColor=none;align=left;verticalAlign=top;spacingLeft=4;spacingRight=4;overflow=hidden;rotatable=0;points=[[0,0.5],[1,0.5]];portConstraint=eastwest;" parent="rqCDqb16ot3SvTPK8jaa-6" vertex="1">
                    <mxGeometry y="38" width="285" height="80" as="geometry"/>
                </mxCell>
                <mxCell id="rqCDqb16ot3SvTPK8jaa-8" value="" style="line;strokeWidth=1;fillColor=none;align=left;verticalAlign=middle;spacingTop=-1;spacingLeft=3;spacingRight=3;rotatable=0;labelPosition=right;points=[];portConstraint=eastwest;" parent="rqCDqb16ot3SvTPK8jaa-6" vertex="1">
                    <mxGeometry y="118" width="285" height="8" as="geometry"/>
                </mxCell>
                <mxCell id="rqCDqb16ot3SvTPK8jaa-9" value="+ quanLyKho(String matKhau): void&#10;+ quanLyThuoc(): void&#10;+ quanLyTrangThietBi(): void" style="text;strokeColor=none;fillColor=none;align=left;verticalAlign=top;spacingLeft=4;spacingRight=4;overflow=hidden;rotatable=0;points=[[0,0.5],[1,0.5]];portConstraint=eastwest;" parent="rqCDqb16ot3SvTPK8jaa-6" vertex="1">
                    <mxGeometry y="126" width="285" height="59" as="geometry"/>
                </mxCell>
                <mxCell id="rqCDqb16ot3SvTPK8jaa-11" value="«interface»&#10;DuocSi" style="swimlane;fontStyle=1;align=center;verticalAlign=top;childLayout=stackLayout;horizontal=1;startSize=38;horizontalStack=0;resizeParent=1;resizeParentMax=0;resizeLast=0;collapsible=1;marginBottom=0;" parent="rqCDqb16ot3SvTPK8jaa-1" vertex="1">
                    <mxGeometry x="219" y="639" width="286" height="202" as="geometry"/>
                </mxCell>
                <mxCell id="rqCDqb16ot3SvTPK8jaa-12" value="- maDS: String&#10;- ten: String&#10;- ho: String&#10;- diaChi: String&#10;- soDienThoai: Int" style="text;strokeColor=none;fillColor=none;align=left;verticalAlign=top;spacingLeft=4;spacingRight=4;overflow=hidden;rotatable=0;points=[[0,0.5],[1,0.5]];portConstraint=eastwest;" parent="rqCDqb16ot3SvTPK8jaa-11" vertex="1">
                    <mxGeometry y="38" width="286" height="72" as="geometry"/>
                </mxCell>
                <mxCell id="rqCDqb16ot3SvTPK8jaa-13" value="" style="line;strokeWidth=1;fillColor=none;align=left;verticalAlign=middle;spacingTop=-1;spacingLeft=3;spacingRight=3;rotatable=0;labelPosition=right;points=[];portConstraint=eastwest;" parent="rqCDqb16ot3SvTPK8jaa-11" vertex="1">
                    <mxGeometry y="110" width="286" height="16" as="geometry"/>
                </mxCell>
                <mxCell id="rqCDqb16ot3SvTPK8jaa-14" value="+ xemDonThuoc(String matKhau): void&#10;+ in(): void&#10;+ dieuChinhSoLuongThuoc/vatDungDaBan(): void&#10;+ quanLyQuayThuoc(String matKhau): void" style="text;strokeColor=none;fillColor=none;align=left;verticalAlign=top;spacingLeft=4;spacingRight=4;overflow=hidden;rotatable=0;points=[[0,0.5],[1,0.5]];portConstraint=eastwest;" parent="rqCDqb16ot3SvTPK8jaa-11" vertex="1">
                    <mxGeometry y="126" width="286" height="76" as="geometry"/>
                </mxCell>
            </root>
        </mxGraphModel>
    </diagram>
    <diagram id="m_bA3fSsG68a9Jzg--aS" name="Activity">
        <mxGraphModel dx="1733" dy="407" grid="0" gridSize="10" guides="1" tooltips="1" connect="1" arrows="1" fold="1" page="1" pageScale="1" pageWidth="850" pageHeight="1100" math="0" shadow="0">
            <root>
                <mxCell id="egOsNYIqWtgnQG-z7xXL-0"/>
                <mxCell id="egOsNYIqWtgnQG-z7xXL-1" parent="egOsNYIqWtgnQG-z7xXL-0"/>
                <mxCell id="ufxxjTf8rlPN4sB5lxRT-20" value="DuocSi" style="swimlane;" parent="egOsNYIqWtgnQG-z7xXL-1" vertex="1">
                    <mxGeometry x="-357" y="319" width="397" height="850" as="geometry"/>
                </mxCell>
                <mxCell id="ufxxjTf8rlPN4sB5lxRT-24" value="" style="shape=ellipse;html=1;fillColor=#000000;strokeWidth=2;verticalLabelPosition=bottom;verticalAlignment=top;perimeter=ellipsePerimeter;" parent="ufxxjTf8rlPN4sB5lxRT-20" vertex="1">
                    <mxGeometry x="178.5" y="63" width="40" height="40" as="geometry"/>
                </mxCell>
                <mxCell id="ufxxjTf8rlPN4sB5lxRT-26" value="" style="endArrow=open;endFill=1;endSize=12;html=1;exitX=0.5;exitY=1;exitDx=0;exitDy=0;entryX=0.5;entryY=0;entryDx=0;entryDy=0;" parent="ufxxjTf8rlPN4sB5lxRT-20" source="ufxxjTf8rlPN4sB5lxRT-24" target="ufxxjTf8rlPN4sB5lxRT-27" edge="1">
                    <mxGeometry width="160" relative="1" as="geometry">
                        <mxPoint x="170" y="146" as="sourcePoint"/>
                        <mxPoint x="199" y="145" as="targetPoint"/>
                    </mxGeometry>
                </mxCell>
                <mxCell id="ufxxjTf8rlPN4sB5lxRT-27" value="Chọn đơn thuốc" style="shape=rect;html=1;rounded=1;whiteSpace=wrap;align=center;" parent="ufxxjTf8rlPN4sB5lxRT-20" vertex="1">
                    <mxGeometry x="134" y="145" width="126" height="62" as="geometry"/>
                </mxCell>
                <mxCell id="ufxxjTf8rlPN4sB5lxRT-29" value="Nhập số lượng xuất" style="shape=rect;html=1;rounded=1;whiteSpace=wrap;align=center;" parent="ufxxjTf8rlPN4sB5lxRT-20" vertex="1">
                    <mxGeometry x="134" y="248" width="126" height="62" as="geometry"/>
                </mxCell>
                <mxCell id="ufxxjTf8rlPN4sB5lxRT-30" value="" style="endArrow=open;endFill=1;endSize=12;html=1;exitX=0.5;exitY=1;exitDx=0;exitDy=0;entryX=0.5;entryY=0;entryDx=0;entryDy=0;" parent="ufxxjTf8rlPN4sB5lxRT-20" source="ufxxjTf8rlPN4sB5lxRT-29" target="ufxxjTf8rlPN4sB5lxRT-31" edge="1">
                    <mxGeometry width="160" relative="1" as="geometry">
                        <mxPoint x="231" y="346" as="sourcePoint"/>
                        <mxPoint x="391" y="346" as="targetPoint"/>
                    </mxGeometry>
                </mxCell>
                <mxCell id="ufxxjTf8rlPN4sB5lxRT-31" value="Nhấn vào nút xuất" style="shape=rect;html=1;rounded=1;whiteSpace=wrap;align=center;" parent="ufxxjTf8rlPN4sB5lxRT-20" vertex="1">
                    <mxGeometry x="135.5" y="356" width="126" height="62" as="geometry"/>
                </mxCell>
                <mxCell id="ufxxjTf8rlPN4sB5lxRT-33" value="" style="endArrow=open;endFill=1;endSize=12;html=1;exitX=0.5;exitY=1;exitDx=0;exitDy=0;entryX=0.5;entryY=0;entryDx=0;entryDy=0;" parent="ufxxjTf8rlPN4sB5lxRT-20" source="ufxxjTf8rlPN4sB5lxRT-27" target="ufxxjTf8rlPN4sB5lxRT-29" edge="1">
                    <mxGeometry width="160" relative="1" as="geometry">
                        <mxPoint x="207" y="230" as="sourcePoint"/>
                        <mxPoint x="367" y="230" as="targetPoint"/>
                    </mxGeometry>
                </mxCell>
                <mxCell id="wx9FIkcA9CEM1q05jhxp-0" value="" style="shape=ellipse;html=1;fillColor=#000000;strokeWidth=2;verticalLabelPosition=bottom;verticalAlignment=top;perimeter=ellipsePerimeter;" parent="ufxxjTf8rlPN4sB5lxRT-20" vertex="1">
                    <mxGeometry x="174" y="772" width="40" height="40" as="geometry"/>
                </mxCell>
                <mxCell id="ufxxjTf8rlPN4sB5lxRT-21" value="QuanLyQuayThuocView" style="swimlane;" parent="egOsNYIqWtgnQG-z7xXL-1" vertex="1">
                    <mxGeometry x="40" y="319" width="397" height="850" as="geometry"/>
                </mxCell>
                <mxCell id="ufxxjTf8rlPN4sB5lxRT-44" value="Cảnh báo số lượng xuất không hợp lệ" style="shape=rect;html=1;rounded=1;whiteSpace=wrap;align=center;" parent="ufxxjTf8rlPN4sB5lxRT-21" vertex="1">
                    <mxGeometry x="126" y="467" width="126" height="62" as="geometry"/>
                </mxCell>
                <mxCell id="ufxxjTf8rlPN4sB5lxRT-52" value="Xuất thất bại" style="shape=rect;html=1;rounded=1;whiteSpace=wrap;align=center;" parent="ufxxjTf8rlPN4sB5lxRT-21" vertex="1">
                    <mxGeometry x="126" y="575" width="126" height="62" as="geometry"/>
                </mxCell>
                <mxCell id="ufxxjTf8rlPN4sB5lxRT-53" value="Xuất thành công" style="shape=rect;html=1;rounded=1;whiteSpace=wrap;align=center;" parent="ufxxjTf8rlPN4sB5lxRT-21" vertex="1">
                    <mxGeometry x="126" y="683" width="126" height="62" as="geometry"/>
                </mxCell>
                <mxCell id="ufxxjTf8rlPN4sB5lxRT-22" value="QuanLyQuayThuocController" style="swimlane;" parent="egOsNYIqWtgnQG-z7xXL-1" vertex="1">
                    <mxGeometry x="437" y="319" width="397" height="850" as="geometry"/>
                </mxCell>
                <mxCell id="ufxxjTf8rlPN4sB5lxRT-34" value="Xuất đơn thuốc" style="shape=rect;html=1;rounded=1;whiteSpace=wrap;align=center;" parent="ufxxjTf8rlPN4sB5lxRT-22" vertex="1">
                    <mxGeometry x="140" y="356" width="126" height="62" as="geometry"/>
                </mxCell>
                <mxCell id="ufxxjTf8rlPN4sB5lxRT-40" value="" style="shape=rhombus;html=1;verticalLabelPosition=bottom;verticalAlignment=top;" parent="ufxxjTf8rlPN4sB5lxRT-22" vertex="1">
                    <mxGeometry x="186" y="478" width="40" height="40" as="geometry"/>
                </mxCell>
                <mxCell id="ufxxjTf8rlPN4sB5lxRT-41" value="" style="edgeStyle=elbowEdgeStyle;html=1;elbow=horizontal;align=right;verticalAlign=bottom;endArrow=none;rounded=0;labelBackgroundColor=none;startArrow=open;startSize=12;entryX=0.5;entryY=1;entryDx=0;entryDy=0;" parent="ufxxjTf8rlPN4sB5lxRT-22" edge="1">
                    <mxGeometry relative="1" as="geometry">
                        <mxPoint x="206" y="418" as="targetPoint"/>
                        <mxPoint x="206" y="477" as="sourcePoint"/>
                    </mxGeometry>
                </mxCell>
                <mxCell id="ufxxjTf8rlPN4sB5lxRT-23" value="SanPham" style="swimlane;" parent="egOsNYIqWtgnQG-z7xXL-1" vertex="1">
                    <mxGeometry x="834" y="319" width="397" height="850" as="geometry"/>
                </mxCell>
                <mxCell id="ufxxjTf8rlPN4sB5lxRT-45" value="Cập nhật số lượng xuất" style="shape=rect;html=1;rounded=1;whiteSpace=wrap;align=center;" parent="ufxxjTf8rlPN4sB5lxRT-23" vertex="1">
                    <mxGeometry x="135.5" y="467" width="141.5" height="61" as="geometry"/>
                </mxCell>
                <mxCell id="ufxxjTf8rlPN4sB5lxRT-46" value="" style="shape=rhombus;html=1;verticalLabelPosition=bottom;verticalAlignment=top;" parent="ufxxjTf8rlPN4sB5lxRT-23" vertex="1">
                    <mxGeometry x="186.25" y="586" width="40" height="40" as="geometry"/>
                </mxCell>
                <mxCell id="ufxxjTf8rlPN4sB5lxRT-51" value="" style="endArrow=open;endFill=1;endSize=12;html=1;exitX=0.5;exitY=1;exitDx=0;exitDy=0;entryX=0.512;entryY=0.025;entryDx=0;entryDy=0;entryPerimeter=0;" parent="ufxxjTf8rlPN4sB5lxRT-23" source="ufxxjTf8rlPN4sB5lxRT-45" target="ufxxjTf8rlPN4sB5lxRT-46" edge="1">
                    <mxGeometry width="160" relative="1" as="geometry">
                        <mxPoint x="116" y="552" as="sourcePoint"/>
                        <mxPoint x="276" y="552" as="targetPoint"/>
                    </mxGeometry>
                </mxCell>
                <mxCell id="ufxxjTf8rlPN4sB5lxRT-35" value="" style="endArrow=open;endFill=1;endSize=12;html=1;exitX=1;exitY=0.5;exitDx=0;exitDy=0;entryX=0;entryY=0.5;entryDx=0;entryDy=0;entryPerimeter=0;" parent="egOsNYIqWtgnQG-z7xXL-1" source="ufxxjTf8rlPN4sB5lxRT-31" target="ufxxjTf8rlPN4sB5lxRT-34" edge="1">
                    <mxGeometry width="160" relative="1" as="geometry">
                        <mxPoint x="-58" y="701" as="sourcePoint"/>
                        <mxPoint x="102" y="701" as="targetPoint"/>
                    </mxGeometry>
                </mxCell>
                <mxCell id="ufxxjTf8rlPN4sB5lxRT-43" value="[Số lượng nhập nhỏ hơn số lượng xuất]" style="edgeStyle=elbowEdgeStyle;html=1;elbow=vertical;verticalAlign=bottom;endArrow=open;rounded=0;endSize=12;exitX=0;exitY=0.5;exitDx=0;exitDy=0;entryX=1;entryY=0.5;entryDx=0;entryDy=0;" parent="egOsNYIqWtgnQG-z7xXL-1" source="ufxxjTf8rlPN4sB5lxRT-40" target="ufxxjTf8rlPN4sB5lxRT-44" edge="1">
                    <mxGeometry relative="1" as="geometry">
                        <mxPoint x="552" y="883" as="targetPoint"/>
                    </mxGeometry>
                </mxCell>
                <mxCell id="ufxxjTf8rlPN4sB5lxRT-42" value="[Ngược lại]" style="edgeStyle=elbowEdgeStyle;html=1;elbow=vertical;verticalAlign=bottom;endArrow=open;rounded=0;endSize=12;exitX=1;exitY=0.5;exitDx=0;exitDy=0;entryX=0;entryY=0.5;entryDx=0;entryDy=0;" parent="egOsNYIqWtgnQG-z7xXL-1" source="ufxxjTf8rlPN4sB5lxRT-40" target="ufxxjTf8rlPN4sB5lxRT-45" edge="1">
                    <mxGeometry relative="1" as="geometry">
                        <mxPoint x="988" y="811" as="targetPoint"/>
                    </mxGeometry>
                </mxCell>
                <mxCell id="ufxxjTf8rlPN4sB5lxRT-49" value="[ketQua == false]" style="edgeStyle=elbowEdgeStyle;html=1;elbow=vertical;verticalAlign=bottom;endArrow=open;rounded=0;endSize=12;exitX=0;exitY=0.5;exitDx=0;exitDy=0;entryX=1;entryY=0.5;entryDx=0;entryDy=0;" parent="egOsNYIqWtgnQG-z7xXL-1" source="ufxxjTf8rlPN4sB5lxRT-46" target="ufxxjTf8rlPN4sB5lxRT-52" edge="1">
                    <mxGeometry relative="1" as="geometry">
                        <mxPoint x="708" y="925" as="targetPoint"/>
                    </mxGeometry>
                </mxCell>
                <mxCell id="ufxxjTf8rlPN4sB5lxRT-48" value="[ketQua == true]" style="edgeStyle=elbowEdgeStyle;html=1;elbow=vertical;verticalAlign=bottom;endArrow=open;rounded=0;labelBackgroundColor=none;endSize=12;entryX=0.5;entryY=0;entryDx=0;entryDy=0;" parent="egOsNYIqWtgnQG-z7xXL-1" source="ufxxjTf8rlPN4sB5lxRT-46" target="ufxxjTf8rlPN4sB5lxRT-53" edge="1">
                    <mxGeometry relative="1" as="geometry">
                        <mxPoint x="1040" y="1007.3793103448276" as="targetPoint"/>
                    </mxGeometry>
                </mxCell>
                <mxCell id="wx9FIkcA9CEM1q05jhxp-2" value="NhanVien" style="swimlane;" parent="egOsNYIqWtgnQG-z7xXL-1" vertex="1">
                    <mxGeometry x="-563" y="1395" width="448" height="1500" as="geometry"/>
                </mxCell>
                <mxCell id="wx9FIkcA9CEM1q05jhxp-3" value="" style="shape=ellipse;html=1;fillColor=#000000;strokeWidth=2;verticalLabelPosition=bottom;verticalAlignment=top;perimeter=ellipsePerimeter;" parent="wx9FIkcA9CEM1q05jhxp-2" vertex="1">
                    <mxGeometry x="178.5" y="63" width="40" height="40" as="geometry"/>
                </mxCell>
                <mxCell id="wx9FIkcA9CEM1q05jhxp-4" value="" style="endArrow=open;endFill=1;endSize=12;html=1;exitX=0.5;exitY=1;exitDx=0;exitDy=0;entryX=0.5;entryY=0;entryDx=0;entryDy=0;" parent="wx9FIkcA9CEM1q05jhxp-2" source="wx9FIkcA9CEM1q05jhxp-3" target="wx9FIkcA9CEM1q05jhxp-5" edge="1">
                    <mxGeometry width="160" relative="1" as="geometry">
                        <mxPoint x="170" y="146" as="sourcePoint"/>
                        <mxPoint x="199" y="145" as="targetPoint"/>
                    </mxGeometry>
                </mxCell>
                <mxCell id="wx9FIkcA9CEM1q05jhxp-5" value="Dùng thẻ nhân viên cho vào khe đọc thẻ" style="shape=rect;html=1;rounded=1;whiteSpace=wrap;align=center;" parent="wx9FIkcA9CEM1q05jhxp-2" vertex="1">
                    <mxGeometry x="100.5" y="148" width="196" height="62" as="geometry"/>
                </mxCell>
                <mxCell id="wx9FIkcA9CEM1q05jhxp-34" value="Nhấn nút điểm danh" style="shape=rect;html=1;rounded=1;whiteSpace=wrap;align=center;" parent="wx9FIkcA9CEM1q05jhxp-2" vertex="1">
                    <mxGeometry x="100.5" y="260" width="196" height="62" as="geometry"/>
                </mxCell>
                <mxCell id="wx9FIkcA9CEM1q05jhxp-36" value="" style="endArrow=open;endFill=1;endSize=12;html=1;exitX=0.5;exitY=1;exitDx=0;exitDy=0;entryX=0.5;entryY=0;entryDx=0;entryDy=0;" parent="wx9FIkcA9CEM1q05jhxp-2" source="wx9FIkcA9CEM1q05jhxp-5" target="wx9FIkcA9CEM1q05jhxp-34" edge="1">
                    <mxGeometry width="160" relative="1" as="geometry">
                        <mxPoint x="156" y="383" as="sourcePoint"/>
                        <mxPoint x="316" y="383" as="targetPoint"/>
                    </mxGeometry>
                </mxCell>
                <mxCell id="wx9FIkcA9CEM1q05jhxp-37" value="Chọn nút xác nhận" style="shape=rect;html=1;rounded=1;whiteSpace=wrap;align=center;" parent="wx9FIkcA9CEM1q05jhxp-2" vertex="1">
                    <mxGeometry x="100.5" y="372" width="196" height="62" as="geometry"/>
                </mxCell>
                <mxCell id="wx9FIkcA9CEM1q05jhxp-38" value="" style="endArrow=open;endFill=1;endSize=12;html=1;exitX=0.5;exitY=1;exitDx=0;exitDy=0;entryX=0.5;entryY=0;entryDx=0;entryDy=0;" parent="wx9FIkcA9CEM1q05jhxp-2" source="wx9FIkcA9CEM1q05jhxp-34" target="wx9FIkcA9CEM1q05jhxp-37" edge="1">
                    <mxGeometry width="160" relative="1" as="geometry">
                        <mxPoint x="178" y="491" as="sourcePoint"/>
                        <mxPoint x="338" y="491" as="targetPoint"/>
                    </mxGeometry>
                </mxCell>
                <mxCell id="8icMXfHM-T1CmmEMHP-b-98" value="Lấy thẻ" style="shape=rect;html=1;rounded=1;whiteSpace=wrap;align=center;" parent="wx9FIkcA9CEM1q05jhxp-2" vertex="1">
                    <mxGeometry x="100.5" y="1318" width="196" height="62" as="geometry"/>
                </mxCell>
                <mxCell id="8icMXfHM-T1CmmEMHP-b-96" value="" style="shape=ellipse;html=1;fillColor=#000000;strokeWidth=2;verticalLabelPosition=bottom;verticalAlignment=top;perimeter=ellipsePerimeter;" parent="wx9FIkcA9CEM1q05jhxp-2" vertex="1">
                    <mxGeometry x="178.5" y="1435" width="40" height="40" as="geometry"/>
                </mxCell>
                <mxCell id="8icMXfHM-T1CmmEMHP-b-100" value="" style="endArrow=open;endFill=1;endSize=12;html=1;targetPerimeterSpacing=0;exitX=0.5;exitY=1;exitDx=0;exitDy=0;entryX=0.5;entryY=0;entryDx=0;entryDy=0;" parent="wx9FIkcA9CEM1q05jhxp-2" source="8icMXfHM-T1CmmEMHP-b-98" target="8icMXfHM-T1CmmEMHP-b-96" edge="1">
                    <mxGeometry width="160" relative="1" as="geometry">
                        <mxPoint x="133" y="1555" as="sourcePoint"/>
                        <mxPoint x="293" y="1555" as="targetPoint"/>
                    </mxGeometry>
                </mxCell>
                <mxCell id="wx9FIkcA9CEM1q05jhxp-10" value="DiemDanhView" style="swimlane;" parent="egOsNYIqWtgnQG-z7xXL-1" vertex="1">
                    <mxGeometry x="-115" y="1395" width="554" height="1500" as="geometry"/>
                </mxCell>
                <mxCell id="8icMXfHM-T1CmmEMHP-b-4" value="Cảnh báo thẻ nhân viên không hợp lệ" style="shape=rect;html=1;rounded=1;whiteSpace=wrap;align=center;" parent="wx9FIkcA9CEM1q05jhxp-10" vertex="1">
                    <mxGeometry x="236" y="485" width="196" height="62" as="geometry"/>
                </mxCell>
                <mxCell id="8icMXfHM-T1CmmEMHP-b-51" value="Cảnh báo thời gian điểm danh không hợp lệ" style="shape=rect;html=1;rounded=1;whiteSpace=wrap;align=center;" parent="wx9FIkcA9CEM1q05jhxp-10" vertex="1">
                    <mxGeometry x="236" y="598" width="196" height="62" as="geometry"/>
                </mxCell>
                <mxCell id="8icMXfHM-T1CmmEMHP-b-62" value="Thông báo điểm danh thành công" style="shape=rect;html=1;rounded=1;whiteSpace=wrap;align=center;" parent="wx9FIkcA9CEM1q05jhxp-10" vertex="1">
                    <mxGeometry x="224" y="815" width="196" height="62" as="geometry"/>
                </mxCell>
                <mxCell id="8icMXfHM-T1CmmEMHP-b-63" value="Thông báo điểm danh thất bại" style="shape=rect;html=1;rounded=1;whiteSpace=wrap;align=center;" parent="wx9FIkcA9CEM1q05jhxp-10" vertex="1">
                    <mxGeometry x="224" y="911" width="196" height="62" as="geometry"/>
                </mxCell>
                <mxCell id="8icMXfHM-T1CmmEMHP-b-75" value="Thông báo điểm danh thành công" style="shape=rect;html=1;rounded=1;whiteSpace=wrap;align=center;" parent="wx9FIkcA9CEM1q05jhxp-10" vertex="1">
                    <mxGeometry x="224" y="1091" width="196" height="62" as="geometry"/>
                </mxCell>
                <mxCell id="8icMXfHM-T1CmmEMHP-b-76" value="Thông báo điểm danh thất bại" style="shape=rect;html=1;rounded=1;whiteSpace=wrap;align=center;" parent="wx9FIkcA9CEM1q05jhxp-10" vertex="1">
                    <mxGeometry x="224" y="1192" width="196" height="62" as="geometry"/>
                </mxCell>
                <mxCell id="8icMXfHM-T1CmmEMHP-b-80" value="" style="shape=rhombus;html=1;verticalLabelPosition=top;verticalAlignment=bottom;" parent="wx9FIkcA9CEM1q05jhxp-10" vertex="1">
                    <mxGeometry x="159" y="873" width="40" height="40" as="geometry"/>
                </mxCell>
                <mxCell id="8icMXfHM-T1CmmEMHP-b-82" value="" style="edgeStyle=elbowEdgeStyle;html=1;elbow=vertical;verticalAlign=bottom;startArrow=open;endArrow=none;rounded=0;labelBackgroundColor=none;startSize=12;targetPerimeterSpacing=0;entryX=0;entryY=0.5;entryDx=0;entryDy=0;" parent="wx9FIkcA9CEM1q05jhxp-10" source="8icMXfHM-T1CmmEMHP-b-80" target="8icMXfHM-T1CmmEMHP-b-62" edge="1">
                    <mxGeometry relative="1" as="geometry">
                        <mxPoint x="261" y="898" as="targetPoint"/>
                        <Array as="points">
                            <mxPoint x="200" y="846"/>
                        </Array>
                    </mxGeometry>
                </mxCell>
                <mxCell id="8icMXfHM-T1CmmEMHP-b-83" value="" style="edgeStyle=elbowEdgeStyle;html=1;elbow=vertical;verticalAlign=bottom;startArrow=open;endArrow=none;rounded=0;labelBackgroundColor=none;startSize=12;targetPerimeterSpacing=0;entryX=0;entryY=0.5;entryDx=0;entryDy=0;" parent="wx9FIkcA9CEM1q05jhxp-10" source="8icMXfHM-T1CmmEMHP-b-80" target="8icMXfHM-T1CmmEMHP-b-63" edge="1">
                    <mxGeometry relative="1" as="geometry">
                        <mxPoint x="61" y="898" as="targetPoint"/>
                        <Array as="points">
                            <mxPoint x="228" y="942"/>
                        </Array>
                    </mxGeometry>
                </mxCell>
                <mxCell id="8icMXfHM-T1CmmEMHP-b-84" value="" style="html=1;points=[];perimeter=orthogonalPerimeter;fillColor=#000000;strokeColor=none;" parent="wx9FIkcA9CEM1q05jhxp-10" vertex="1">
                    <mxGeometry x="110" y="487" width="5" height="807" as="geometry"/>
                </mxCell>
                <mxCell id="8icMXfHM-T1CmmEMHP-b-85" value="" style="endArrow=open;endFill=1;endSize=12;html=1;targetPerimeterSpacing=0;exitX=0;exitY=0.5;exitDx=0;exitDy=0;" parent="wx9FIkcA9CEM1q05jhxp-10" source="8icMXfHM-T1CmmEMHP-b-4" edge="1">
                    <mxGeometry width="160" relative="1" as="geometry">
                        <mxPoint x="221" y="578" as="sourcePoint"/>
                        <mxPoint x="114" y="515" as="targetPoint"/>
                    </mxGeometry>
                </mxCell>
                <mxCell id="8icMXfHM-T1CmmEMHP-b-86" value="" style="endArrow=open;endFill=1;endSize=12;html=1;targetPerimeterSpacing=0;exitX=0;exitY=0.5;exitDx=0;exitDy=0;entryX=0.971;entryY=0.176;entryDx=0;entryDy=0;entryPerimeter=0;" parent="wx9FIkcA9CEM1q05jhxp-10" source="8icMXfHM-T1CmmEMHP-b-51" target="8icMXfHM-T1CmmEMHP-b-84" edge="1">
                    <mxGeometry width="160" relative="1" as="geometry">
                        <mxPoint x="246" y="526" as="sourcePoint"/>
                        <mxPoint x="153" y="636" as="targetPoint"/>
                    </mxGeometry>
                </mxCell>
                <mxCell id="8icMXfHM-T1CmmEMHP-b-87" value="" style="shape=rhombus;html=1;verticalLabelPosition=top;verticalAlignment=bottom;" parent="wx9FIkcA9CEM1q05jhxp-10" vertex="1">
                    <mxGeometry x="155.65" y="1155" width="40" height="40" as="geometry"/>
                </mxCell>
                <mxCell id="8icMXfHM-T1CmmEMHP-b-88" value="" style="edgeStyle=elbowEdgeStyle;html=1;elbow=horizontal;align=right;verticalAlign=bottom;rounded=0;labelBackgroundColor=none;endArrow=open;endSize=12;targetPerimeterSpacing=0;" parent="wx9FIkcA9CEM1q05jhxp-10" source="8icMXfHM-T1CmmEMHP-b-87" edge="1">
                    <mxGeometry relative="1" as="geometry">
                        <mxPoint x="114" y="1175" as="targetPoint"/>
                        <Array as="points">
                            <mxPoint x="146" y="1175"/>
                            <mxPoint x="80.65" y="1175"/>
                            <mxPoint x="118.65" y="1176"/>
                            <mxPoint x="-12.349999999999994" y="1179"/>
                        </Array>
                    </mxGeometry>
                </mxCell>
                <mxCell id="8icMXfHM-T1CmmEMHP-b-89" value="" style="edgeStyle=elbowEdgeStyle;html=1;elbow=vertical;verticalAlign=bottom;startArrow=open;endArrow=none;rounded=0;labelBackgroundColor=none;startSize=12;targetPerimeterSpacing=0;entryX=0;entryY=0.5;entryDx=0;entryDy=0;exitX=0.5;exitY=0;exitDx=0;exitDy=0;" parent="wx9FIkcA9CEM1q05jhxp-10" source="8icMXfHM-T1CmmEMHP-b-87" target="8icMXfHM-T1CmmEMHP-b-75" edge="1">
                    <mxGeometry relative="1" as="geometry">
                        <mxPoint x="226" y="1083" as="targetPoint"/>
                        <mxPoint x="180" y="1108" as="sourcePoint"/>
                        <Array as="points">
                            <mxPoint x="197" y="1122"/>
                        </Array>
                    </mxGeometry>
                </mxCell>
                <mxCell id="8icMXfHM-T1CmmEMHP-b-90" value="" style="edgeStyle=elbowEdgeStyle;html=1;elbow=vertical;verticalAlign=bottom;startArrow=open;endArrow=none;rounded=0;labelBackgroundColor=none;startSize=12;targetPerimeterSpacing=0;entryX=0;entryY=0.5;entryDx=0;entryDy=0;exitX=0.5;exitY=1;exitDx=0;exitDy=0;" parent="wx9FIkcA9CEM1q05jhxp-10" source="8icMXfHM-T1CmmEMHP-b-87" target="8icMXfHM-T1CmmEMHP-b-76" edge="1">
                    <mxGeometry relative="1" as="geometry">
                        <mxPoint x="199" y="1284" as="targetPoint"/>
                        <mxPoint x="153" y="1253" as="sourcePoint"/>
                        <Array as="points">
                            <mxPoint x="202" y="1223"/>
                        </Array>
                    </mxGeometry>
                </mxCell>
                <mxCell id="8icMXfHM-T1CmmEMHP-b-91" value="" style="endArrow=open;endFill=1;endSize=12;html=1;targetPerimeterSpacing=0;exitX=0;exitY=0.5;exitDx=0;exitDy=0;" parent="wx9FIkcA9CEM1q05jhxp-10" source="8icMXfHM-T1CmmEMHP-b-80" target="8icMXfHM-T1CmmEMHP-b-84" edge="1">
                    <mxGeometry width="160" relative="1" as="geometry">
                        <mxPoint x="155" y="855" as="sourcePoint"/>
                        <mxPoint x="125" y="893" as="targetPoint"/>
                    </mxGeometry>
                </mxCell>
                <mxCell id="wx9FIkcA9CEM1q05jhxp-18" value="DiemDanhController" style="swimlane;" parent="egOsNYIqWtgnQG-z7xXL-1" vertex="1">
                    <mxGeometry x="439" y="1395" width="395" height="1500" as="geometry"/>
                </mxCell>
                <mxCell id="wx9FIkcA9CEM1q05jhxp-39" value="Kiểm tra thẻ nhân viên" style="shape=rect;html=1;rounded=1;whiteSpace=wrap;align=center;" parent="wx9FIkcA9CEM1q05jhxp-18" vertex="1">
                    <mxGeometry x="108" y="372" width="196" height="62" as="geometry"/>
                </mxCell>
                <mxCell id="8icMXfHM-T1CmmEMHP-b-0" value="" style="shape=rhombus;html=1;verticalLabelPosition=bottom;verticalAlignment=top;" parent="wx9FIkcA9CEM1q05jhxp-18" vertex="1">
                    <mxGeometry x="186" y="496" width="40" height="40" as="geometry"/>
                </mxCell>
                <mxCell id="8icMXfHM-T1CmmEMHP-b-1" value="" style="edgeStyle=elbowEdgeStyle;html=1;elbow=horizontal;align=right;verticalAlign=bottom;endArrow=none;rounded=0;labelBackgroundColor=none;startArrow=open;startSize=12;entryX=0.5;entryY=1;entryDx=0;entryDy=0;" parent="wx9FIkcA9CEM1q05jhxp-18" source="8icMXfHM-T1CmmEMHP-b-0" target="wx9FIkcA9CEM1q05jhxp-39" edge="1">
                    <mxGeometry relative="1" as="geometry">
                        <mxPoint x="224" y="553" as="targetPoint"/>
                    </mxGeometry>
                </mxCell>
                <mxCell id="8icMXfHM-T1CmmEMHP-b-43" value="" style="shape=rhombus;html=1;verticalLabelPosition=bottom;verticalAlignment=top;" parent="wx9FIkcA9CEM1q05jhxp-18" vertex="1">
                    <mxGeometry x="186" y="609" width="40" height="40" as="geometry"/>
                </mxCell>
                <mxCell id="8icMXfHM-T1CmmEMHP-b-46" value="[Ngược lại]" style="edgeStyle=elbowEdgeStyle;html=1;elbow=vertical;verticalAlign=bottom;endArrow=open;rounded=0;endSize=12;targetPerimeterSpacing=0;exitX=0.5;exitY=1;exitDx=0;exitDy=0;entryX=0.5;entryY=0;entryDx=0;entryDy=0;" parent="wx9FIkcA9CEM1q05jhxp-18" source="8icMXfHM-T1CmmEMHP-b-0" target="8icMXfHM-T1CmmEMHP-b-43" edge="1">
                    <mxGeometry relative="1" as="geometry">
                        <mxPoint x="66" y="640" as="targetPoint"/>
                    </mxGeometry>
                </mxCell>
                <mxCell id="8icMXfHM-T1CmmEMHP-b-47" value="" style="shape=rhombus;html=1;verticalLabelPosition=bottom;verticalAlignment=top;" parent="wx9FIkcA9CEM1q05jhxp-18" vertex="1">
                    <mxGeometry x="186" y="722" width="40" height="40" as="geometry"/>
                </mxCell>
                <mxCell id="8icMXfHM-T1CmmEMHP-b-49" value="[Ngược lại]" style="edgeStyle=elbowEdgeStyle;html=1;elbow=vertical;verticalAlign=bottom;endArrow=open;rounded=0;endSize=12;targetPerimeterSpacing=0;exitX=0.5;exitY=1;exitDx=0;exitDy=0;entryX=0.5;entryY=0;entryDx=0;entryDy=0;" parent="wx9FIkcA9CEM1q05jhxp-18" source="8icMXfHM-T1CmmEMHP-b-43" target="8icMXfHM-T1CmmEMHP-b-47" edge="1">
                    <mxGeometry relative="1" as="geometry">
                        <mxPoint x="206" y="714" as="targetPoint"/>
                    </mxGeometry>
                </mxCell>
                <mxCell id="8icMXfHM-T1CmmEMHP-b-64" value="" style="shape=rhombus;html=1;verticalLabelPosition=bottom;verticalAlignment=top;" parent="wx9FIkcA9CEM1q05jhxp-18" vertex="1">
                    <mxGeometry x="186" y="1003" width="40" height="40" as="geometry"/>
                </mxCell>
                <mxCell id="8icMXfHM-T1CmmEMHP-b-67" value="[Ngược lại]" style="edgeStyle=elbowEdgeStyle;html=1;elbow=vertical;verticalAlign=bottom;endArrow=open;rounded=0;endSize=12;targetPerimeterSpacing=0;exitX=0.5;exitY=1;exitDx=0;exitDy=0;entryX=0.5;entryY=0;entryDx=0;entryDy=0;" parent="wx9FIkcA9CEM1q05jhxp-18" source="8icMXfHM-T1CmmEMHP-b-47" target="8icMXfHM-T1CmmEMHP-b-64" edge="1">
                    <mxGeometry relative="1" as="geometry">
                        <mxPoint x="463" y="1088" as="targetPoint"/>
                    </mxGeometry>
                </mxCell>
                <mxCell id="8icMXfHM-T1CmmEMHP-b-93" value="Trả thẻ" style="shape=rect;html=1;rounded=1;whiteSpace=wrap;align=center;" parent="wx9FIkcA9CEM1q05jhxp-18" vertex="1">
                    <mxGeometry x="108" y="1262" width="196" height="62" as="geometry"/>
                </mxCell>
                <mxCell id="wx9FIkcA9CEM1q05jhxp-26" value="NhanVien" style="swimlane;" parent="egOsNYIqWtgnQG-z7xXL-1" vertex="1">
                    <mxGeometry x="834" y="1395" width="445" height="1500" as="geometry"/>
                </mxCell>
                <mxCell id="8icMXfHM-T1CmmEMHP-b-57" value="Điểm danh vào ca" style="shape=rect;html=1;rounded=1;whiteSpace=wrap;align=center;" parent="wx9FIkcA9CEM1q05jhxp-26" vertex="1">
                    <mxGeometry x="182" y="711" width="196" height="62" as="geometry"/>
                </mxCell>
                <mxCell id="8icMXfHM-T1CmmEMHP-b-58" value="" style="shape=rhombus;html=1;verticalLabelPosition=bottom;verticalAlignment=top;" parent="wx9FIkcA9CEM1q05jhxp-26" vertex="1">
                    <mxGeometry x="260" y="826" width="40" height="40" as="geometry"/>
                </mxCell>
                <mxCell id="8icMXfHM-T1CmmEMHP-b-59" value="" style="edgeStyle=elbowEdgeStyle;html=1;elbow=horizontal;align=right;verticalAlign=bottom;endArrow=none;rounded=0;labelBackgroundColor=none;startArrow=open;startSize=12;targetPerimeterSpacing=0;entryX=0.5;entryY=1;entryDx=0;entryDy=0;" parent="wx9FIkcA9CEM1q05jhxp-26" source="8icMXfHM-T1CmmEMHP-b-58" target="8icMXfHM-T1CmmEMHP-b-57" edge="1">
                    <mxGeometry relative="1" as="geometry">
                        <mxPoint x="286" y="824" as="targetPoint"/>
                    </mxGeometry>
                </mxCell>
                <mxCell id="8icMXfHM-T1CmmEMHP-b-69" value="Điểm danh tan ca" style="shape=rect;html=1;rounded=1;whiteSpace=wrap;align=center;" parent="wx9FIkcA9CEM1q05jhxp-26" vertex="1">
                    <mxGeometry x="182" y="988" width="196" height="62" as="geometry"/>
                </mxCell>
                <mxCell id="8icMXfHM-T1CmmEMHP-b-71" value="" style="shape=rhombus;html=1;verticalLabelPosition=bottom;verticalAlignment=top;" parent="wx9FIkcA9CEM1q05jhxp-26" vertex="1">
                    <mxGeometry x="260" y="1102" width="40" height="40" as="geometry"/>
                </mxCell>
                <mxCell id="8icMXfHM-T1CmmEMHP-b-72" value="" style="edgeStyle=elbowEdgeStyle;html=1;elbow=horizontal;align=right;verticalAlign=bottom;endArrow=none;rounded=0;labelBackgroundColor=none;startArrow=open;startSize=12;targetPerimeterSpacing=0;entryX=0.5;entryY=1;entryDx=0;entryDy=0;" parent="wx9FIkcA9CEM1q05jhxp-26" source="8icMXfHM-T1CmmEMHP-b-71" target="8icMXfHM-T1CmmEMHP-b-69" edge="1">
                    <mxGeometry relative="1" as="geometry">
                        <mxPoint x="242" y="1138" as="targetPoint"/>
                    </mxGeometry>
                </mxCell>
                <mxCell id="wx9FIkcA9CEM1q05jhxp-40" value="" style="endArrow=open;endFill=1;endSize=12;html=1;exitX=1;exitY=0.5;exitDx=0;exitDy=0;entryX=0;entryY=0.5;entryDx=0;entryDy=0;" parent="egOsNYIqWtgnQG-z7xXL-1" source="wx9FIkcA9CEM1q05jhxp-37" target="wx9FIkcA9CEM1q05jhxp-39" edge="1">
                    <mxGeometry width="160" relative="1" as="geometry">
                        <mxPoint x="66" y="1829" as="sourcePoint"/>
                        <mxPoint x="226" y="1829" as="targetPoint"/>
                    </mxGeometry>
                </mxCell>
                <mxCell id="8icMXfHM-T1CmmEMHP-b-3" value="[Thẻ nhân viên không hợp lệ]" style="edgeStyle=elbowEdgeStyle;html=1;elbow=vertical;verticalAlign=bottom;endArrow=open;rounded=0;endSize=12;exitX=0;exitY=0.5;exitDx=0;exitDy=0;entryX=0.997;entryY=0.5;entryDx=0;entryDy=0;entryPerimeter=0;" parent="egOsNYIqWtgnQG-z7xXL-1" source="8icMXfHM-T1CmmEMHP-b-0" target="8icMXfHM-T1CmmEMHP-b-4" edge="1">
                    <mxGeometry relative="1" as="geometry">
                        <mxPoint x="361" y="1911" as="targetPoint"/>
                        <Array as="points">
                            <mxPoint x="469" y="1911"/>
                        </Array>
                    </mxGeometry>
                </mxCell>
                <mxCell id="8icMXfHM-T1CmmEMHP-b-50" value="[Thời điểm điểm danh ngoài thời gian điểm danh]" style="edgeStyle=elbowEdgeStyle;html=1;elbow=vertical;verticalAlign=bottom;endArrow=open;rounded=0;endSize=12;targetPerimeterSpacing=0;entryX=0.997;entryY=0.468;entryDx=0;entryDy=0;entryPerimeter=0;exitX=0;exitY=0.5;exitDx=0;exitDy=0;" parent="egOsNYIqWtgnQG-z7xXL-1" source="8icMXfHM-T1CmmEMHP-b-43" target="8icMXfHM-T1CmmEMHP-b-51" edge="1">
                    <mxGeometry relative="1" as="geometry">
                        <mxPoint x="392" y="2024" as="targetPoint"/>
                        <mxPoint x="622" y="2024" as="sourcePoint"/>
                    </mxGeometry>
                </mxCell>
                <mxCell id="8icMXfHM-T1CmmEMHP-b-55" value="[Thời điểm điểm danh tronng khoảng thời gian điểm danh vào ca]" style="edgeStyle=elbowEdgeStyle;html=1;elbow=vertical;verticalAlign=bottom;endArrow=open;rounded=0;endSize=12;targetPerimeterSpacing=0;exitX=1;exitY=0.5;exitDx=0;exitDy=0;entryX=0;entryY=0.5;entryDx=0;entryDy=0;" parent="egOsNYIqWtgnQG-z7xXL-1" source="8icMXfHM-T1CmmEMHP-b-47" target="8icMXfHM-T1CmmEMHP-b-57" edge="1">
                    <mxGeometry relative="1" as="geometry">
                        <mxPoint x="1006" y="2124" as="targetPoint"/>
                    </mxGeometry>
                </mxCell>
                <mxCell id="8icMXfHM-T1CmmEMHP-b-61" value="[ketQua == true]" style="edgeStyle=elbowEdgeStyle;html=1;elbow=vertical;verticalAlign=bottom;endArrow=open;rounded=0;labelBackgroundColor=none;endSize=12;targetPerimeterSpacing=0;exitX=0;exitY=0.5;exitDx=0;exitDy=0;entryX=1;entryY=0.5;entryDx=0;entryDy=0;" parent="egOsNYIqWtgnQG-z7xXL-1" source="8icMXfHM-T1CmmEMHP-b-58" target="8icMXfHM-T1CmmEMHP-b-62" edge="1">
                    <mxGeometry relative="1" as="geometry">
                        <mxPoint x="710" y="2260" as="targetPoint"/>
                    </mxGeometry>
                </mxCell>
                <mxCell id="8icMXfHM-T1CmmEMHP-b-60" value="[ketQua == false]" style="edgeStyle=elbowEdgeStyle;html=1;elbow=vertical;verticalAlign=bottom;endArrow=open;rounded=0;labelBackgroundColor=none;endSize=12;targetPerimeterSpacing=0;entryX=1;entryY=0.5;entryDx=0;entryDy=0;" parent="egOsNYIqWtgnQG-z7xXL-1" source="8icMXfHM-T1CmmEMHP-b-58" target="8icMXfHM-T1CmmEMHP-b-63" edge="1">
                    <mxGeometry relative="1" as="geometry">
                        <mxPoint x="707" y="2302" as="targetPoint"/>
                        <Array as="points">
                            <mxPoint x="723" y="2337"/>
                        </Array>
                    </mxGeometry>
                </mxCell>
                <mxCell id="8icMXfHM-T1CmmEMHP-b-68" value="&lt;span style=&quot;background-color: rgb(255 , 255 , 255)&quot;&gt;[Thời điểm điểm danh trong khoảng thời gian điểm danh tan ca &lt;br&gt;và có thời điểm vào ca trong cùng một buổi ]&lt;/span&gt;" style="edgeStyle=elbowEdgeStyle;html=1;elbow=vertical;verticalAlign=bottom;endArrow=open;rounded=0;endSize=12;targetPerimeterSpacing=0;exitX=1;exitY=0.5;exitDx=0;exitDy=0;entryX=0;entryY=0.565;entryDx=0;entryDy=0;entryPerimeter=0;" parent="egOsNYIqWtgnQG-z7xXL-1" source="8icMXfHM-T1CmmEMHP-b-64" target="8icMXfHM-T1CmmEMHP-b-69" edge="1">
                    <mxGeometry relative="1" as="geometry">
                        <mxPoint x="990" y="2418" as="targetPoint"/>
                        <mxPoint x="673" y="2147" as="sourcePoint"/>
                        <Array as="points">
                            <mxPoint x="836" y="2418"/>
                        </Array>
                    </mxGeometry>
                </mxCell>
                <mxCell id="8icMXfHM-T1CmmEMHP-b-74" value="[ketQua == true]" style="edgeStyle=elbowEdgeStyle;html=1;elbow=vertical;verticalAlign=bottom;endArrow=open;rounded=0;labelBackgroundColor=none;endSize=12;targetPerimeterSpacing=0;exitX=0;exitY=0.5;exitDx=0;exitDy=0;entryX=1;entryY=0.5;entryDx=0;entryDy=0;" parent="egOsNYIqWtgnQG-z7xXL-1" source="8icMXfHM-T1CmmEMHP-b-71" target="8icMXfHM-T1CmmEMHP-b-75" edge="1">
                    <mxGeometry relative="1" as="geometry">
                        <mxPoint x="745" y="2552" as="targetPoint"/>
                    </mxGeometry>
                </mxCell>
                <mxCell id="8icMXfHM-T1CmmEMHP-b-73" value="[ketQua == false]" style="edgeStyle=elbowEdgeStyle;html=1;elbow=vertical;verticalAlign=bottom;endArrow=open;rounded=0;labelBackgroundColor=none;endSize=12;targetPerimeterSpacing=0;entryX=1;entryY=0.5;entryDx=0;entryDy=0;" parent="egOsNYIqWtgnQG-z7xXL-1" source="8icMXfHM-T1CmmEMHP-b-71" target="8icMXfHM-T1CmmEMHP-b-76" edge="1">
                    <mxGeometry relative="1" as="geometry">
                        <mxPoint x="1176" y="2593" as="targetPoint"/>
                        <Array as="points">
                            <mxPoint x="727" y="2618"/>
                        </Array>
                    </mxGeometry>
                </mxCell>
                <mxCell id="8icMXfHM-T1CmmEMHP-b-95" value="" style="endArrow=open;endFill=1;endSize=12;html=1;targetPerimeterSpacing=0;exitX=0.57;exitY=1;exitDx=0;exitDy=0;exitPerimeter=0;" parent="egOsNYIqWtgnQG-z7xXL-1" source="8icMXfHM-T1CmmEMHP-b-93" edge="1">
                    <mxGeometry width="160" relative="1" as="geometry">
                        <mxPoint x="659" y="2727" as="sourcePoint"/>
                        <mxPoint x="-268" y="2749" as="targetPoint"/>
                        <Array as="points">
                            <mxPoint x="659" y="2749"/>
                        </Array>
                    </mxGeometry>
                </mxCell>
                <mxCell id="8icMXfHM-T1CmmEMHP-b-92" value="" style="endArrow=open;endFill=1;endSize=12;html=1;targetPerimeterSpacing=0;entryX=0;entryY=0.5;entryDx=0;entryDy=0;" parent="egOsNYIqWtgnQG-z7xXL-1" source="8icMXfHM-T1CmmEMHP-b-84" target="8icMXfHM-T1CmmEMHP-b-93" edge="1">
                    <mxGeometry width="160" relative="1" as="geometry">
                        <mxPoint x="1" y="2688" as="sourcePoint"/>
                        <mxPoint x="512" y="2688" as="targetPoint"/>
                    </mxGeometry>
                </mxCell>
                <mxCell id="8icMXfHM-T1CmmEMHP-b-104" value="" style="endArrow=open;endFill=1;endSize=12;html=1;targetPerimeterSpacing=0;exitX=0;exitY=0.5;exitDx=0;exitDy=0;entryX=0;entryY=0.5;entryDx=0;entryDy=0;" parent="egOsNYIqWtgnQG-z7xXL-1" source="ufxxjTf8rlPN4sB5lxRT-44" target="ufxxjTf8rlPN4sB5lxRT-29" edge="1">
                    <mxGeometry width="160" relative="1" as="geometry">
                        <mxPoint x="-216" y="822" as="sourcePoint"/>
                        <mxPoint x="-56" y="822" as="targetPoint"/>
                        <Array as="points">
                            <mxPoint x="-283" y="817"/>
                            <mxPoint x="-283" y="598"/>
                        </Array>
                    </mxGeometry>
                </mxCell>
                <mxCell id="8icMXfHM-T1CmmEMHP-b-105" value="" style="endArrow=open;endFill=1;endSize=12;html=1;targetPerimeterSpacing=0;exitX=0;exitY=0.5;exitDx=0;exitDy=0;entryX=0.5;entryY=0;entryDx=0;entryDy=0;" parent="egOsNYIqWtgnQG-z7xXL-1" source="HYv83JICklupO9mML6yW-0" target="wx9FIkcA9CEM1q05jhxp-0" edge="1">
                    <mxGeometry width="160" relative="1" as="geometry">
                        <mxPoint x="97.94000000000005" y="1062.497" as="sourcePoint"/>
                        <mxPoint x="-167" y="1062" as="targetPoint"/>
                        <Array as="points">
                            <mxPoint x="-163" y="977"/>
                        </Array>
                    </mxGeometry>
                </mxCell>
                <mxCell id="HYv83JICklupO9mML6yW-0" value="" style="shape=rhombus;html=1;verticalLabelPosition=bottom;verticalAlignment=top;" vertex="1" parent="egOsNYIqWtgnQG-z7xXL-1">
                    <mxGeometry x="57" y="957" width="40" height="40" as="geometry"/>
                </mxCell>
                <mxCell id="8icMXfHM-T1CmmEMHP-b-103" value="" style="endArrow=open;endFill=1;endSize=12;html=1;exitX=0;exitY=0.5;exitDx=0;exitDy=0;entryX=0.5;entryY=0;entryDx=0;entryDy=0;" parent="egOsNYIqWtgnQG-z7xXL-1" source="ufxxjTf8rlPN4sB5lxRT-52" target="HYv83JICklupO9mML6yW-0" edge="1">
                    <mxGeometry width="160" relative="1" as="geometry">
                        <mxPoint x="176" y="1043" as="sourcePoint"/>
                        <mxPoint x="100" y="926" as="targetPoint"/>
                        <Array as="points">
                            <mxPoint x="77" y="925"/>
                        </Array>
                    </mxGeometry>
                </mxCell>
                <mxCell id="wx9FIkcA9CEM1q05jhxp-1" value="" style="endArrow=open;endFill=1;endSize=12;html=1;exitX=0;exitY=0.5;exitDx=0;exitDy=0;entryX=0.525;entryY=1;entryDx=0;entryDy=0;entryPerimeter=0;" parent="egOsNYIqWtgnQG-z7xXL-1" source="ufxxjTf8rlPN4sB5lxRT-53" edge="1" target="HYv83JICklupO9mML6yW-0">
                    <mxGeometry width="160" relative="1" as="geometry">
                        <mxPoint x="150" y="1071" as="sourcePoint"/>
                        <mxPoint x="98" y="1033" as="targetPoint"/>
                        <Array as="points">
                            <mxPoint x="78" y="1033"/>
                        </Array>
                    </mxGeometry>
                </mxCell>
            </root>
        </mxGraphModel>
    </diagram>
    <diagram id="dJ8TIa0oOEzLZdp0TVPH" name="Sequence">
        <mxGraphModel dx="1060" dy="488" grid="0" gridSize="10" guides="1" tooltips="1" connect="1" arrows="1" fold="1" page="0" pageScale="1" pageWidth="850" pageHeight="1100" math="0" shadow="0">
            <root>
                <mxCell id="ban3GIgoiY41HupAhzNf-0"/>
                <mxCell id="ban3GIgoiY41HupAhzNf-1" parent="ban3GIgoiY41HupAhzNf-0"/>
                <mxCell id="fiOh0vWp7R4ZSH8BQshs-0" value="&lt;b&gt;Biểu đồ tuần tự của Quản lý quầy thuốc&lt;/b&gt;" style="shape=umlFrame;whiteSpace=wrap;html=1;width=131;height=34;" parent="ban3GIgoiY41HupAhzNf-1" vertex="1">
                    <mxGeometry x="121" y="1240" width="913" height="988" as="geometry"/>
                </mxCell>
                <mxCell id="Oa0XcOT17NqC6oznUx03-10" value="&lt;b&gt;Biểu đồ tuần tự của Điểm danh&lt;/b&gt;" style="shape=umlFrame;whiteSpace=wrap;html=1;width=127;height=32;" parent="ban3GIgoiY41HupAhzNf-1" vertex="1">
                    <mxGeometry x="176" y="68" width="938" height="802" as="geometry"/>
                </mxCell>
                <mxCell id="ban3GIgoiY41HupAhzNf-3" value="NhanVienView" style="shape=umlLifeline;participant=umlBoundary;perimeter=lifelinePerimeter;whiteSpace=wrap;html=1;container=1;collapsible=0;recursiveResize=0;verticalAlign=top;spacingTop=36;outlineConnect=0;" parent="ban3GIgoiY41HupAhzNf-1" vertex="1">
                    <mxGeometry x="538" y="114" width="50" height="695" as="geometry"/>
                </mxCell>
                <mxCell id="ban3GIgoiY41HupAhzNf-9" value="" style="html=1;points=[];perimeter=orthogonalPerimeter;" parent="ban3GIgoiY41HupAhzNf-3" vertex="1">
                    <mxGeometry x="20" y="121" width="10" height="30" as="geometry"/>
                </mxCell>
                <mxCell id="ban3GIgoiY41HupAhzNf-14" value="" style="html=1;points=[];perimeter=orthogonalPerimeter;" parent="ban3GIgoiY41HupAhzNf-3" vertex="1">
                    <mxGeometry x="20" y="174" width="10" height="33" as="geometry"/>
                </mxCell>
                <mxCell id="ban3GIgoiY41HupAhzNf-17" value="" style="html=1;points=[];perimeter=orthogonalPerimeter;" parent="ban3GIgoiY41HupAhzNf-3" vertex="1">
                    <mxGeometry x="20" y="224" width="10" height="458" as="geometry"/>
                </mxCell>
                <mxCell id="ban3GIgoiY41HupAhzNf-18" value="4. Kiểm tra thẻ nhân viên" style="html=1;verticalAlign=bottom;endArrow=block;" parent="ban3GIgoiY41HupAhzNf-3" edge="1">
                    <mxGeometry width="80" relative="1" as="geometry">
                        <mxPoint x="31" y="306" as="sourcePoint"/>
                        <mxPoint x="179" y="306" as="targetPoint"/>
                    </mxGeometry>
                </mxCell>
                <mxCell id="ban3GIgoiY41HupAhzNf-4" value="DiemDanh" style="shape=umlLifeline;participant=umlEntity;perimeter=lifelinePerimeter;whiteSpace=wrap;html=1;container=1;collapsible=0;recursiveResize=0;verticalAlign=top;spacingTop=36;outlineConnect=0;" parent="ban3GIgoiY41HupAhzNf-1" vertex="1">
                    <mxGeometry x="1037" y="121" width="40" height="622" as="geometry"/>
                </mxCell>
                <mxCell id="ban3GIgoiY41HupAhzNf-28" value="" style="html=1;points=[];perimeter=orthogonalPerimeter;" parent="ban3GIgoiY41HupAhzNf-4" vertex="1">
                    <mxGeometry x="15" y="408" width="10" height="36" as="geometry"/>
                </mxCell>
                <mxCell id="Njvfiq2ClvZ6gGmvPk1F-20" value="" style="html=1;points=[];perimeter=orthogonalPerimeter;" parent="ban3GIgoiY41HupAhzNf-4" vertex="1">
                    <mxGeometry x="13" y="569" width="10" height="38" as="geometry"/>
                </mxCell>
                <mxCell id="ban3GIgoiY41HupAhzNf-5" value="NhanVienController" style="shape=umlLifeline;participant=umlControl;perimeter=lifelinePerimeter;whiteSpace=wrap;html=1;container=1;collapsible=0;recursiveResize=0;verticalAlign=top;spacingTop=36;outlineConnect=0;" parent="ban3GIgoiY41HupAhzNf-1" vertex="1">
                    <mxGeometry x="703" y="114" width="40" height="691" as="geometry"/>
                </mxCell>
                <mxCell id="ban3GIgoiY41HupAhzNf-19" value="" style="html=1;points=[];perimeter=orthogonalPerimeter;" parent="ban3GIgoiY41HupAhzNf-5" vertex="1">
                    <mxGeometry x="15" y="300" width="10" height="370" as="geometry"/>
                </mxCell>
                <mxCell id="ban3GIgoiY41HupAhzNf-24" value="" style="html=1;points=[];perimeter=orthogonalPerimeter;" parent="ban3GIgoiY41HupAhzNf-5" vertex="1">
                    <mxGeometry x="20" y="348" width="10" height="40" as="geometry"/>
                </mxCell>
                <mxCell id="ban3GIgoiY41HupAhzNf-25" value="5-A.[Nếu thẻ nhân viên không hợp lệ] hienThi(canhBao)" style="edgeStyle=orthogonalEdgeStyle;html=1;align=left;spacingLeft=2;endArrow=block;rounded=0;entryX=1;entryY=0;" parent="ban3GIgoiY41HupAhzNf-5" target="ban3GIgoiY41HupAhzNf-24" edge="1">
                    <mxGeometry relative="1" as="geometry">
                        <mxPoint x="25" y="328" as="sourcePoint"/>
                        <Array as="points">
                            <mxPoint x="55" y="328"/>
                        </Array>
                    </mxGeometry>
                </mxCell>
                <mxCell id="Njvfiq2ClvZ6gGmvPk1F-13" value="" style="html=1;points=[];perimeter=orthogonalPerimeter;" parent="ban3GIgoiY41HupAhzNf-5" vertex="1">
                    <mxGeometry x="20" y="505" width="10" height="40" as="geometry"/>
                </mxCell>
                <mxCell id="Njvfiq2ClvZ6gGmvPk1F-14" value="6-A [Nếu sai khung giờ điểm danh] hienThi(canhBao)" style="edgeStyle=orthogonalEdgeStyle;html=1;align=left;spacingLeft=2;endArrow=block;rounded=0;entryX=1;entryY=0;" parent="ban3GIgoiY41HupAhzNf-5" target="Njvfiq2ClvZ6gGmvPk1F-13" edge="1">
                    <mxGeometry relative="1" as="geometry">
                        <mxPoint x="25" y="485" as="sourcePoint"/>
                        <Array as="points">
                            <mxPoint x="55" y="485"/>
                        </Array>
                    </mxGeometry>
                </mxCell>
                <mxCell id="ban3GIgoiY41HupAhzNf-6" value="NhanVien" style="shape=umlLifeline;participant=umlActor;perimeter=lifelinePerimeter;whiteSpace=wrap;html=1;container=1;collapsible=0;recursiveResize=0;verticalAlign=top;spacingTop=36;outlineConnect=0;" parent="ban3GIgoiY41HupAhzNf-1" vertex="1">
                    <mxGeometry x="307" y="121" width="22" height="711" as="geometry"/>
                </mxCell>
                <mxCell id="ban3GIgoiY41HupAhzNf-7" value="" style="html=1;points=[];perimeter=orthogonalPerimeter;" parent="ban3GIgoiY41HupAhzNf-6" vertex="1">
                    <mxGeometry x="5" y="114" width="10" height="570" as="geometry"/>
                </mxCell>
                <mxCell id="ban3GIgoiY41HupAhzNf-15" value="2. Nhấn nút điểm danh" style="html=1;verticalAlign=bottom;endArrow=block;" parent="ban3GIgoiY41HupAhzNf-6" edge="1">
                    <mxGeometry width="80" relative="1" as="geometry">
                        <mxPoint x="14" y="167" as="sourcePoint"/>
                        <mxPoint x="249" y="167" as="targetPoint"/>
                    </mxGeometry>
                </mxCell>
                <mxCell id="ban3GIgoiY41HupAhzNf-13" value="1. Dùng thẻ nhân viên gạc qua đầu đọc thẻ" style="html=1;verticalAlign=bottom;endArrow=block;" parent="ban3GIgoiY41HupAhzNf-1" edge="1">
                    <mxGeometry width="80" relative="1" as="geometry">
                        <mxPoint x="322" y="235" as="sourcePoint"/>
                        <mxPoint x="557" y="235" as="targetPoint"/>
                    </mxGeometry>
                </mxCell>
                <mxCell id="ban3GIgoiY41HupAhzNf-16" value="3. Chọn nút xác nhận" style="html=1;verticalAlign=bottom;endArrow=block;" parent="ban3GIgoiY41HupAhzNf-1" edge="1">
                    <mxGeometry width="80" relative="1" as="geometry">
                        <mxPoint x="322" y="337" as="sourcePoint"/>
                        <mxPoint x="557" y="337" as="targetPoint"/>
                    </mxGeometry>
                </mxCell>
                <mxCell id="ban3GIgoiY41HupAhzNf-29" value="5-B [Ngược lại] xacMinh(maNV,chucDanh,...)" style="html=1;verticalAlign=bottom;endArrow=block;entryX=0;entryY=0;" parent="ban3GIgoiY41HupAhzNf-1" target="ban3GIgoiY41HupAhzNf-28" edge="1">
                    <mxGeometry relative="1" as="geometry">
                        <mxPoint x="728" y="529" as="sourcePoint"/>
                    </mxGeometry>
                </mxCell>
                <mxCell id="ban3GIgoiY41HupAhzNf-30" value="ketQua" style="html=1;verticalAlign=bottom;endArrow=open;dashed=1;endSize=8;exitX=0;exitY=0.95;" parent="ban3GIgoiY41HupAhzNf-1" source="ban3GIgoiY41HupAhzNf-28" edge="1">
                    <mxGeometry relative="1" as="geometry">
                        <mxPoint x="730" y="563" as="targetPoint"/>
                    </mxGeometry>
                </mxCell>
                <mxCell id="ban3GIgoiY41HupAhzNf-31" value="canhBao" style="html=1;verticalAlign=bottom;endArrow=open;dashed=1;endSize=8;" parent="ban3GIgoiY41HupAhzNf-1" target="ban3GIgoiY41HupAhzNf-17" edge="1">
                    <mxGeometry relative="1" as="geometry">
                        <mxPoint x="720" y="494" as="sourcePoint"/>
                        <mxPoint x="573" y="494" as="targetPoint"/>
                    </mxGeometry>
                </mxCell>
                <mxCell id="ban3GIgoiY41HupAhzNf-32" value="Thẻ nhân viên không hợp lệ" style="html=1;verticalAlign=bottom;endArrow=open;dashed=1;endSize=8;" parent="ban3GIgoiY41HupAhzNf-1" edge="1">
                    <mxGeometry relative="1" as="geometry">
                        <mxPoint x="561" y="510" as="sourcePoint"/>
                        <mxPoint x="325" y="510" as="targetPoint"/>
                    </mxGeometry>
                </mxCell>
                <mxCell id="-z3oR2EFGDXKBvlqm-dZ-0" value="DuocSi" style="shape=umlLifeline;participant=umlActor;perimeter=lifelinePerimeter;whiteSpace=wrap;html=1;container=1;collapsible=0;recursiveResize=0;verticalAlign=top;spacingTop=36;outlineConnect=0;" parent="ban3GIgoiY41HupAhzNf-1" vertex="1">
                    <mxGeometry x="200" y="1295" width="20" height="904" as="geometry"/>
                </mxCell>
                <mxCell id="-z3oR2EFGDXKBvlqm-dZ-4" value="" style="html=1;points=[];perimeter=orthogonalPerimeter;" parent="-z3oR2EFGDXKBvlqm-dZ-0" vertex="1">
                    <mxGeometry x="4" y="103" width="10" height="26" as="geometry"/>
                </mxCell>
                <mxCell id="Njvfiq2ClvZ6gGmvPk1F-39" value="" style="html=1;points=[];perimeter=orthogonalPerimeter;" parent="-z3oR2EFGDXKBvlqm-dZ-0" vertex="1">
                    <mxGeometry x="5" y="156" width="10" height="28" as="geometry"/>
                </mxCell>
                <mxCell id="Njvfiq2ClvZ6gGmvPk1F-41" value="" style="html=1;points=[];perimeter=orthogonalPerimeter;" parent="-z3oR2EFGDXKBvlqm-dZ-0" vertex="1">
                    <mxGeometry x="4" y="234" width="10" height="30" as="geometry"/>
                </mxCell>
                <mxCell id="Njvfiq2ClvZ6gGmvPk1F-42" value="" style="html=1;points=[];perimeter=orthogonalPerimeter;" parent="-z3oR2EFGDXKBvlqm-dZ-0" vertex="1">
                    <mxGeometry x="4" y="295" width="10" height="35" as="geometry"/>
                </mxCell>
                <mxCell id="Njvfiq2ClvZ6gGmvPk1F-44" value="" style="html=1;points=[];perimeter=orthogonalPerimeter;" parent="-z3oR2EFGDXKBvlqm-dZ-0" vertex="1">
                    <mxGeometry x="8" y="406" width="10" height="31" as="geometry"/>
                </mxCell>
                <mxCell id="Njvfiq2ClvZ6gGmvPk1F-51" value="" style="html=1;points=[];perimeter=orthogonalPerimeter;" parent="-z3oR2EFGDXKBvlqm-dZ-0" vertex="1">
                    <mxGeometry x="5" y="528" width="10" height="38" as="geometry"/>
                </mxCell>
                <mxCell id="Njvfiq2ClvZ6gGmvPk1F-53" value="" style="html=1;points=[];perimeter=orthogonalPerimeter;" parent="-z3oR2EFGDXKBvlqm-dZ-0" vertex="1">
                    <mxGeometry x="5" y="603" width="10" height="57" as="geometry"/>
                </mxCell>
                <mxCell id="-z3oR2EFGDXKBvlqm-dZ-1" value="DuocSiView" style="shape=umlLifeline;participant=umlBoundary;perimeter=lifelinePerimeter;whiteSpace=wrap;html=1;container=1;collapsible=0;recursiveResize=0;verticalAlign=top;spacingTop=36;outlineConnect=0;" parent="ban3GIgoiY41HupAhzNf-1" vertex="1">
                    <mxGeometry x="464" y="1285" width="50" height="903" as="geometry"/>
                </mxCell>
                <mxCell id="-z3oR2EFGDXKBvlqm-dZ-8" value="" style="html=1;points=[];perimeter=orthogonalPerimeter;" parent="-z3oR2EFGDXKBvlqm-dZ-1" vertex="1">
                    <mxGeometry x="20" y="164" width="10" height="27" as="geometry"/>
                </mxCell>
                <mxCell id="Njvfiq2ClvZ6gGmvPk1F-25" value="" style="html=1;points=[];perimeter=orthogonalPerimeter;" parent="-z3oR2EFGDXKBvlqm-dZ-1" vertex="1">
                    <mxGeometry x="20" y="113" width="10" height="40" as="geometry"/>
                </mxCell>
                <mxCell id="Njvfiq2ClvZ6gGmvPk1F-26" value="Hiển thị chức năng" style="edgeStyle=orthogonalEdgeStyle;html=1;align=left;spacingLeft=2;endArrow=block;rounded=0;entryX=0.943;entryY=0.689;entryDx=0;entryDy=0;entryPerimeter=0;exitX=1.057;exitY=0.218;exitDx=0;exitDy=0;exitPerimeter=0;" parent="-z3oR2EFGDXKBvlqm-dZ-1" source="Njvfiq2ClvZ6gGmvPk1F-25" target="Njvfiq2ClvZ6gGmvPk1F-25" edge="1">
                    <mxGeometry relative="1" as="geometry">
                        <mxPoint x="30" y="103" as="sourcePoint"/>
                        <Array as="points">
                            <mxPoint x="60" y="122"/>
                            <mxPoint x="60" y="141"/>
                        </Array>
                    </mxGeometry>
                </mxCell>
                <mxCell id="Njvfiq2ClvZ6gGmvPk1F-45" value="Gửi xác nhận" style="html=1;verticalAlign=bottom;endArrow=block;entryX=-0.229;entryY=0.004;entryDx=0;entryDy=0;entryPerimeter=0;" parent="-z3oR2EFGDXKBvlqm-dZ-1" target="Njvfiq2ClvZ6gGmvPk1F-46" edge="1">
                    <mxGeometry width="80" relative="1" as="geometry">
                        <mxPoint x="32" y="445" as="sourcePoint"/>
                        <mxPoint x="112" y="445" as="targetPoint"/>
                    </mxGeometry>
                </mxCell>
                <mxCell id="Njvfiq2ClvZ6gGmvPk1F-54" value="" style="html=1;points=[];perimeter=orthogonalPerimeter;" parent="-z3oR2EFGDXKBvlqm-dZ-1" vertex="1">
                    <mxGeometry x="20" y="613" width="10" height="54" as="geometry"/>
                </mxCell>
                <mxCell id="Njvfiq2ClvZ6gGmvPk1F-55" value="Gửi thông tin" style="html=1;verticalAlign=bottom;endArrow=block;entryX=0.083;entryY=-0.006;entryDx=0;entryDy=0;entryPerimeter=0;" parent="-z3oR2EFGDXKBvlqm-dZ-1" target="Njvfiq2ClvZ6gGmvPk1F-56" edge="1">
                    <mxGeometry width="80" relative="1" as="geometry">
                        <mxPoint x="32" y="648" as="sourcePoint"/>
                        <mxPoint x="172" y="646" as="targetPoint"/>
                    </mxGeometry>
                </mxCell>
                <mxCell id="Njvfiq2ClvZ6gGmvPk1F-60" value="" style="html=1;points=[];perimeter=orthogonalPerimeter;" parent="-z3oR2EFGDXKBvlqm-dZ-1" vertex="1">
                    <mxGeometry x="20" y="760" width="10" height="49" as="geometry"/>
                </mxCell>
                <mxCell id="-z3oR2EFGDXKBvlqm-dZ-2" value="DuocSiController" style="shape=umlLifeline;participant=umlControl;perimeter=lifelinePerimeter;whiteSpace=wrap;html=1;container=1;collapsible=0;recursiveResize=0;verticalAlign=top;spacingTop=36;outlineConnect=0;" parent="ban3GIgoiY41HupAhzNf-1" vertex="1">
                    <mxGeometry x="624" y="1285" width="40" height="922" as="geometry"/>
                </mxCell>
                <mxCell id="Njvfiq2ClvZ6gGmvPk1F-28" value="Lưu vào CSDL" style="html=1;verticalAlign=bottom;endArrow=block;entryX=-0.314;entryY=0.013;entryDx=0;entryDy=0;entryPerimeter=0;" parent="-z3oR2EFGDXKBvlqm-dZ-2" target="Njvfiq2ClvZ6gGmvPk1F-29" edge="1">
                    <mxGeometry width="80" relative="1" as="geometry">
                        <mxPoint x="22" y="200" as="sourcePoint"/>
                        <mxPoint x="102" y="200" as="targetPoint"/>
                    </mxGeometry>
                </mxCell>
                <mxCell id="Njvfiq2ClvZ6gGmvPk1F-46" value="" style="html=1;points=[];perimeter=orthogonalPerimeter;" parent="-z3oR2EFGDXKBvlqm-dZ-2" vertex="1">
                    <mxGeometry x="15" y="445" width="10" height="48" as="geometry"/>
                </mxCell>
                <mxCell id="Njvfiq2ClvZ6gGmvPk1F-47" value="Thực hiện sửa, xóa khỏi CSDL" style="html=1;verticalAlign=bottom;endArrow=block;entryX=-0.05;entryY=-0.031;entryDx=0;entryDy=0;entryPerimeter=0;" parent="-z3oR2EFGDXKBvlqm-dZ-2" target="Njvfiq2ClvZ6gGmvPk1F-48" edge="1">
                    <mxGeometry width="80" relative="1" as="geometry">
                        <mxPoint x="26" y="471" as="sourcePoint"/>
                        <mxPoint x="329" y="471" as="targetPoint"/>
                    </mxGeometry>
                </mxCell>
                <mxCell id="Njvfiq2ClvZ6gGmvPk1F-56" value="" style="html=1;points=[];perimeter=orthogonalPerimeter;" parent="-z3oR2EFGDXKBvlqm-dZ-2" vertex="1">
                    <mxGeometry x="15" y="650" width="10" height="114" as="geometry"/>
                </mxCell>
                <mxCell id="Njvfiq2ClvZ6gGmvPk1F-57" value="Kiểm tra" style="edgeStyle=orthogonalEdgeStyle;html=1;align=left;spacingLeft=2;endArrow=block;rounded=0;exitX=1.005;exitY=0.177;exitDx=0;exitDy=0;exitPerimeter=0;" parent="-z3oR2EFGDXKBvlqm-dZ-2" source="Njvfiq2ClvZ6gGmvPk1F-56" edge="1">
                    <mxGeometry relative="1" as="geometry">
                        <mxPoint x="30" y="649" as="sourcePoint"/>
                        <Array as="points">
                            <mxPoint x="25" y="664"/>
                            <mxPoint x="59" y="664"/>
                            <mxPoint x="59" y="679"/>
                            <mxPoint x="25" y="679"/>
                        </Array>
                        <mxPoint x="25" y="679" as="targetPoint"/>
                    </mxGeometry>
                </mxCell>
                <mxCell id="Njvfiq2ClvZ6gGmvPk1F-58" value="Truy vấn CSDL" style="html=1;verticalAlign=bottom;endArrow=block;entryX=0;entryY=0.023;entryDx=0;entryDy=0;entryPerimeter=0;" parent="-z3oR2EFGDXKBvlqm-dZ-2" target="Njvfiq2ClvZ6gGmvPk1F-59" edge="1">
                    <mxGeometry width="80" relative="1" as="geometry">
                        <mxPoint x="28" y="710" as="sourcePoint"/>
                        <mxPoint x="108" y="710" as="targetPoint"/>
                    </mxGeometry>
                </mxCell>
                <mxCell id="Njvfiq2ClvZ6gGmvPk1F-62" value="" style="html=1;points=[];perimeter=orthogonalPerimeter;" parent="-z3oR2EFGDXKBvlqm-dZ-2" vertex="1">
                    <mxGeometry x="15" y="844" width="10" height="34" as="geometry"/>
                </mxCell>
                <mxCell id="-z3oR2EFGDXKBvlqm-dZ-3" value="QuayThuoc" style="shape=umlLifeline;participant=umlEntity;perimeter=lifelinePerimeter;whiteSpace=wrap;html=1;container=1;collapsible=0;recursiveResize=0;verticalAlign=top;spacingTop=36;outlineConnect=0;" parent="ban3GIgoiY41HupAhzNf-1" vertex="1">
                    <mxGeometry x="938" y="1285" width="40" height="901" as="geometry"/>
                </mxCell>
                <mxCell id="Njvfiq2ClvZ6gGmvPk1F-29" value="" style="html=1;points=[];perimeter=orthogonalPerimeter;" parent="-z3oR2EFGDXKBvlqm-dZ-3" vertex="1">
                    <mxGeometry x="15" y="199.5" width="10" height="33" as="geometry"/>
                </mxCell>
                <mxCell id="Njvfiq2ClvZ6gGmvPk1F-30" value="" style="html=1;points=[];perimeter=orthogonalPerimeter;" parent="-z3oR2EFGDXKBvlqm-dZ-3" vertex="1">
                    <mxGeometry x="15" y="244" width="10" height="30" as="geometry"/>
                </mxCell>
                <mxCell id="Njvfiq2ClvZ6gGmvPk1F-48" value="" style="html=1;points=[];perimeter=orthogonalPerimeter;" parent="-z3oR2EFGDXKBvlqm-dZ-3" vertex="1">
                    <mxGeometry x="14" y="475" width="10" height="49" as="geometry"/>
                </mxCell>
                <mxCell id="Njvfiq2ClvZ6gGmvPk1F-49" value="" style="html=1;points=[];perimeter=orthogonalPerimeter;" parent="-z3oR2EFGDXKBvlqm-dZ-3" vertex="1">
                    <mxGeometry x="15" y="538" width="10" height="46" as="geometry"/>
                </mxCell>
                <mxCell id="Njvfiq2ClvZ6gGmvPk1F-59" value="" style="html=1;points=[];perimeter=orthogonalPerimeter;" parent="-z3oR2EFGDXKBvlqm-dZ-3" vertex="1">
                    <mxGeometry x="15" y="710" width="10" height="43" as="geometry"/>
                </mxCell>
                <mxCell id="-z3oR2EFGDXKBvlqm-dZ-5" value="1. Chọn Điều chỉnh số lượng thuốc/vật dụng&amp;nbsp;" style="html=1;verticalAlign=bottom;endArrow=block;" parent="ban3GIgoiY41HupAhzNf-1" target="-z3oR2EFGDXKBvlqm-dZ-1" edge="1">
                    <mxGeometry width="80" relative="1" as="geometry">
                        <mxPoint x="214" y="1398" as="sourcePoint"/>
                        <mxPoint x="435" y="1398" as="targetPoint"/>
                    </mxGeometry>
                </mxCell>
                <mxCell id="Njvfiq2ClvZ6gGmvPk1F-15" value="canhBao" style="html=1;verticalAlign=bottom;endArrow=open;dashed=1;endSize=8;" parent="ban3GIgoiY41HupAhzNf-1" target="ban3GIgoiY41HupAhzNf-17" edge="1">
                    <mxGeometry relative="1" as="geometry">
                        <mxPoint x="721" y="648" as="sourcePoint"/>
                        <mxPoint x="641" y="648" as="targetPoint"/>
                    </mxGeometry>
                </mxCell>
                <mxCell id="Njvfiq2ClvZ6gGmvPk1F-16" value="Điểm danh thất bại" style="html=1;verticalAlign=bottom;endArrow=open;dashed=1;endSize=8;" parent="ban3GIgoiY41HupAhzNf-1" target="ban3GIgoiY41HupAhzNf-6" edge="1">
                    <mxGeometry relative="1" as="geometry">
                        <mxPoint x="557" y="661" as="sourcePoint"/>
                        <mxPoint x="477" y="661" as="targetPoint"/>
                    </mxGeometry>
                </mxCell>
                <mxCell id="Njvfiq2ClvZ6gGmvPk1F-21" value="6-B [Ngược lại] xacNhan" style="html=1;verticalAlign=bottom;endArrow=block;entryX=0;entryY=0;" parent="ban3GIgoiY41HupAhzNf-1" target="Njvfiq2ClvZ6gGmvPk1F-20" edge="1">
                    <mxGeometry relative="1" as="geometry">
                        <mxPoint x="730" y="690" as="sourcePoint"/>
                    </mxGeometry>
                </mxCell>
                <mxCell id="Njvfiq2ClvZ6gGmvPk1F-22" value="ketQua" style="html=1;verticalAlign=bottom;endArrow=open;dashed=1;endSize=8;exitX=0;exitY=0.95;" parent="ban3GIgoiY41HupAhzNf-1" source="Njvfiq2ClvZ6gGmvPk1F-20" edge="1">
                    <mxGeometry relative="1" as="geometry">
                        <mxPoint x="723" y="726" as="targetPoint"/>
                    </mxGeometry>
                </mxCell>
                <mxCell id="Njvfiq2ClvZ6gGmvPk1F-23" value="ketQua" style="html=1;verticalAlign=bottom;endArrow=open;dashed=1;endSize=8;entryX=1.2;entryY=0.88;entryDx=0;entryDy=0;entryPerimeter=0;" parent="ban3GIgoiY41HupAhzNf-1" target="ban3GIgoiY41HupAhzNf-17" edge="1">
                    <mxGeometry relative="1" as="geometry">
                        <mxPoint x="718" y="743" as="sourcePoint"/>
                        <mxPoint x="567" y="744" as="targetPoint"/>
                    </mxGeometry>
                </mxCell>
                <mxCell id="Njvfiq2ClvZ6gGmvPk1F-24" value="Điểm danh thành công" style="html=1;verticalAlign=bottom;endArrow=open;dashed=1;endSize=8;entryX=1.057;entryY=0.914;entryDx=0;entryDy=0;entryPerimeter=0;" parent="ban3GIgoiY41HupAhzNf-1" target="ban3GIgoiY41HupAhzNf-7" edge="1">
                    <mxGeometry relative="1" as="geometry">
                        <mxPoint x="556" y="755" as="sourcePoint"/>
                        <mxPoint x="323" y="755" as="targetPoint"/>
                    </mxGeometry>
                </mxCell>
                <mxCell id="-z3oR2EFGDXKBvlqm-dZ-7" value="2. Chọn thêm thông tin số lượng thuốc/vật dụng" style="html=1;verticalAlign=bottom;endArrow=block;entryX=0;entryY=0.074;entryDx=0;entryDy=0;entryPerimeter=0;" parent="ban3GIgoiY41HupAhzNf-1" target="-z3oR2EFGDXKBvlqm-dZ-8" edge="1">
                    <mxGeometry width="80" relative="1" as="geometry">
                        <mxPoint x="215" y="1451" as="sourcePoint"/>
                        <mxPoint x="478" y="1451" as="targetPoint"/>
                    </mxGeometry>
                </mxCell>
                <mxCell id="Njvfiq2ClvZ6gGmvPk1F-27" value="" style="html=1;verticalAlign=bottom;endArrow=block;" parent="ban3GIgoiY41HupAhzNf-1" target="-z3oR2EFGDXKBvlqm-dZ-2" edge="1">
                    <mxGeometry width="80" relative="1" as="geometry">
                        <mxPoint x="494" y="1470" as="sourcePoint"/>
                        <mxPoint x="574" y="1470" as="targetPoint"/>
                    </mxGeometry>
                </mxCell>
                <mxCell id="Njvfiq2ClvZ6gGmvPk1F-31" value="Thêm thành công" style="html=1;verticalAlign=bottom;endArrow=block;exitX=-0.022;exitY=0.022;exitDx=0;exitDy=0;exitPerimeter=0;entryX=1.029;entryY=0.024;entryDx=0;entryDy=0;entryPerimeter=0;" parent="ban3GIgoiY41HupAhzNf-1" source="Njvfiq2ClvZ6gGmvPk1F-30" target="Njvfiq2ClvZ6gGmvPk1F-41" edge="1">
                    <mxGeometry width="80" relative="1" as="geometry">
                        <mxPoint x="950" y="1544" as="sourcePoint"/>
                        <mxPoint x="219" y="1530" as="targetPoint"/>
                    </mxGeometry>
                </mxCell>
                <mxCell id="Njvfiq2ClvZ6gGmvPk1F-34" value="Chọn xóa, sửa thông tin thuốc/vật dụng" style="html=1;verticalAlign=bottom;endArrow=block;" parent="ban3GIgoiY41HupAhzNf-1" source="-z3oR2EFGDXKBvlqm-dZ-0" edge="1">
                    <mxGeometry width="80" relative="1" as="geometry">
                        <mxPoint x="217" y="1562" as="sourcePoint"/>
                        <mxPoint x="481" y="1590" as="targetPoint"/>
                        <Array as="points">
                            <mxPoint x="314" y="1590"/>
                        </Array>
                    </mxGeometry>
                </mxCell>
                <mxCell id="Njvfiq2ClvZ6gGmvPk1F-36" value="" style="html=1;points=[];perimeter=orthogonalPerimeter;" parent="ban3GIgoiY41HupAhzNf-1" vertex="1">
                    <mxGeometry x="486" y="1590" width="10" height="169" as="geometry"/>
                </mxCell>
                <mxCell id="Njvfiq2ClvZ6gGmvPk1F-37" value="Hiển thị thông tin thuốc/vật dụng" style="edgeStyle=orthogonalEdgeStyle;html=1;align=left;spacingLeft=2;endArrow=block;rounded=0;exitX=1;exitY=0.15;exitDx=0;exitDy=0;exitPerimeter=0;" parent="ban3GIgoiY41HupAhzNf-1" source="Njvfiq2ClvZ6gGmvPk1F-36" edge="1">
                    <mxGeometry relative="1" as="geometry">
                        <mxPoint x="538" y="1614" as="sourcePoint"/>
                        <Array as="points">
                            <mxPoint x="496" y="1605"/>
                            <mxPoint x="532" y="1605"/>
                            <mxPoint x="532" y="1624"/>
                        </Array>
                        <mxPoint x="499" y="1624" as="targetPoint"/>
                    </mxGeometry>
                </mxCell>
                <mxCell id="Njvfiq2ClvZ6gGmvPk1F-38" value="&amp;nbsp;Xác nhận" style="edgeStyle=orthogonalEdgeStyle;html=1;align=left;spacingLeft=2;endArrow=block;rounded=0;" parent="ban3GIgoiY41HupAhzNf-1" edge="1">
                    <mxGeometry relative="1" as="geometry">
                        <mxPoint x="497" y="1660" as="sourcePoint"/>
                        <Array as="points">
                            <mxPoint x="497" y="1660"/>
                            <mxPoint x="538" y="1660"/>
                            <mxPoint x="538" y="1679"/>
                        </Array>
                        <mxPoint x="497" y="1679" as="targetPoint"/>
                    </mxGeometry>
                </mxCell>
                <mxCell id="Njvfiq2ClvZ6gGmvPk1F-43" value="Chấp nhận" style="html=1;verticalAlign=bottom;endArrow=block;exitX=0.929;exitY=0.043;exitDx=0;exitDy=0;exitPerimeter=0;" parent="ban3GIgoiY41HupAhzNf-1" source="Njvfiq2ClvZ6gGmvPk1F-44" target="-z3oR2EFGDXKBvlqm-dZ-1" edge="1">
                    <mxGeometry width="80" relative="1" as="geometry">
                        <mxPoint x="225" y="1727" as="sourcePoint"/>
                        <mxPoint x="292" y="1727" as="targetPoint"/>
                        <Array as="points">
                            <mxPoint x="335" y="1703"/>
                        </Array>
                    </mxGeometry>
                </mxCell>
                <mxCell id="Njvfiq2ClvZ6gGmvPk1F-50" value="Sửa, xóa thông tin số lượng thuốc/vật dụng thành công" style="html=1;verticalAlign=bottom;endArrow=block;exitX=0.017;exitY=0.025;exitDx=0;exitDy=0;exitPerimeter=0;entryX=0.817;entryY=0.009;entryDx=0;entryDy=0;entryPerimeter=0;" parent="ban3GIgoiY41HupAhzNf-1" source="Njvfiq2ClvZ6gGmvPk1F-49" target="Njvfiq2ClvZ6gGmvPk1F-51" edge="1">
                    <mxGeometry width="80" relative="1" as="geometry">
                        <mxPoint x="855" y="1833" as="sourcePoint"/>
                        <mxPoint x="221" y="1824" as="targetPoint"/>
                    </mxGeometry>
                </mxCell>
                <mxCell id="Njvfiq2ClvZ6gGmvPk1F-52" value="Chọn tìm kiếm thông tin số lượng thuốc/vật dụng" style="html=1;verticalAlign=bottom;endArrow=block;entryX=-0.043;entryY=-0.008;entryDx=0;entryDy=0;entryPerimeter=0;" parent="ban3GIgoiY41HupAhzNf-1" target="Njvfiq2ClvZ6gGmvPk1F-54" edge="1">
                    <mxGeometry width="80" relative="1" as="geometry">
                        <mxPoint x="215" y="1898" as="sourcePoint"/>
                        <mxPoint x="480" y="1898" as="targetPoint"/>
                    </mxGeometry>
                </mxCell>
                <mxCell id="Njvfiq2ClvZ6gGmvPk1F-61" value="không có" style="html=1;verticalAlign=bottom;endArrow=block;entryX=1;entryY=0.025;entryDx=0;entryDy=0;entryPerimeter=0;exitX=0;exitY=0.992;exitDx=0;exitDy=0;exitPerimeter=0;" parent="ban3GIgoiY41HupAhzNf-1" source="Njvfiq2ClvZ6gGmvPk1F-56" target="Njvfiq2ClvZ6gGmvPk1F-60" edge="1">
                    <mxGeometry width="80" relative="1" as="geometry">
                        <mxPoint x="552" y="2083" as="sourcePoint"/>
                        <mxPoint x="632" y="2083" as="targetPoint"/>
                    </mxGeometry>
                </mxCell>
                <mxCell id="Njvfiq2ClvZ6gGmvPk1F-63" value="Hiển thị thông tin số lượng thuốc/vật dụng" style="html=1;verticalAlign=bottom;endArrow=block;exitX=-0.094;exitY=0.005;exitDx=0;exitDy=0;exitPerimeter=0;" parent="ban3GIgoiY41HupAhzNf-1" source="Njvfiq2ClvZ6gGmvPk1F-62" edge="1">
                    <mxGeometry width="80" relative="1" as="geometry">
                        <mxPoint x="551" y="2124" as="sourcePoint"/>
                        <mxPoint x="218" y="2130" as="targetPoint"/>
                    </mxGeometry>
                </mxCell>
                <mxCell id="Njvfiq2ClvZ6gGmvPk1F-64" value="" style="html=1;points=[];perimeter=orthogonalPerimeter;" parent="ban3GIgoiY41HupAhzNf-1" vertex="1">
                    <mxGeometry x="205" y="2128" width="10" height="42" as="geometry"/>
                </mxCell>
            </root>
        </mxGraphModel>
    </diagram>
</mxfile>